<svg xmlns="http://www.w3.org/2000/svg" viewBox="0 0 256 256"><defs><style>.cls-1,.cls-3{fill:#ea4234;}.cls-1{opacity:0.5;}.cls-2{fill:#fff;opacity:0.75;}.cls-4{opacity:0.8;}.cls-5{fill:#151515;}</style></defs><title>Logo</title><g id="Layer_4" data-name="Layer 4"><path class="cls-1" d="M127.43,227.42q49,0,74.74-26.75T228,125.95q0-51.66-25.46-75T128.09,27.56q-23.5,0-41.78,5.23a77.87,77.87,0,0,0-31,16.6Q42.57,60.77,35.72,79.52t-6.85,46.43q0,49.81,26.44,75.64T127.43,227.42Z"/><path class="cls-2" d="M127.71,199.22q35.14,0,53.65-19.2t18.51-53.63q0-37.08-18.27-53.85T128.18,55.76a109.34,109.34,0,0,0-30,3.75A55.89,55.89,0,0,0,75.93,71.43Q66.8,79.6,61.88,93.06T57,126.38q0,35.75,19,54.29T127.71,199.22Z"/><path class="cls-3" d="M128.09,160.59q16.22,0,24.76-8.86T161.39,127q0-17.11-8.43-24.85T128.3,94.38a50.47,50.47,0,0,0-13.84,1.73,25.8,25.8,0,0,0-10.27,5.5,24.25,24.25,0,0,0-6.49,10A45.17,45.17,0,0,0,95.43,127q0,16.5,8.76,25.06T128.09,160.59Z"/><g class="cls-4"><path class="cls-3" d="M128.1,1.16V225.27h39.84l12,30.91H247.1Z"/><path class="cls-3" d="M9.5,256.19H76.88l11.53-30.91H128.5V1.16Z"/><rect class="cls-3" x="75.12" y="173.23" width="35.11" height="82.94"/><rect class="cls-3" x="147.3" y="173.23" width="32.53" height="82.94"/></g><rect class="cls-5" x="108.69" y="216.69" width="39.91" height="39.91"/><polygon class="cls-5" points="128.23 217.56 86.49 217.56 126.41 92.83 128.23 92.83 130.04 92.83 169.64 217.56 128.23 217.56"/></g></svg>