<svg xmlns="http://www.w3.org/2000/svg" viewBox="0 0 400 400"><defs><style>.cls-1{fill:#7bbc42;}.cls-2{fill:#3b74b0;}.cls-3{fill:#fba919;}.cls-4{fill:#dc5726;}.cls-5{fill:#fba91a;}.cls-6{fill:#99ca3c;}.cls-7{fill:#3f89c9;}</style></defs><title>logo</title><g id="Layer_2" data-name="Layer 2"><g id="Layer_1-2" data-name="Layer 1"><path class="cls-1" d="M212.9,112.59l-.62,287c106.25-14,187.86-97.73,187.72-198.92l-.12-88.11Z"/><path class="cls-2" d="M379.28,0,180.64.24c-75.34.09-140,34.91-178.08,88H399.84L399.71,0Z"/><polygon class="cls-3" points="185.73 358.78 186.27 112.59 0 112.59 0 113.65 9.31 125.95 185.73 358.78"/><polygon class="cls-4" points="184.54 400 0 156.45 0 400 184.54 400"/><polygon class="cls-5" points="194.61 383.93 0 127.02 0 143.07 194.61 399.98 194.61 383.93"/><polygon class="cls-6" points="194.61 383.93 194.61 399.98 194.61 400 204.59 400 204.6 104.97 194.61 104.97 194.61 383.93"/><polygon class="cls-7" points="400 95.81 0.97 95.81 0.97 104.97 194.61 104.97 204.6 104.97 400 104.97 400 95.81"/></g></g></svg>