<svg xmlns="http://www.w3.org/2000/svg" viewBox="0 0 320 320"><defs><style>.cls-1{fill:#8fd7eb;}.cls-2{fill:#ea4234;}.cls-3,.cls-5{fill:#fff;}.cls-4{fill:#151515;}.cls-5{opacity:0.65;font-size:29.84px;font-family:FjallaOne-Regular, Fjalla One;}</style></defs><title>Logo</title><g id="Layer_3" data-name="Layer 3"><path class="cls-1" d="M220.05,260.21V219.72q1.83-8.3,3.8-17.66a186,186,0,0,1,5.41-19.74l22.22-62.25H295V280.93H263.18V227.72q0-12.25.33-23.54t.85-20.78q.52-9.47,1.19-16.71c.4-4.35.75-7.87,1.08-10.59l.31-.87-.21,0-.21,0,0,0h-2.27l-15.21,47-21.54,58Z"/><path class="cls-1" d="M266.74,155.2h0l-.21,0v0h-2.27l-15.2,47-21.54,58H220v-40.5H219q-1.84-8.29-3.81-17.66a185,185,0,0,0-5.39-19.73l-21.57-62.26H143.77V280.94H175.6V227.72q0-12.24-.33-23.55t-.85-20.77q-.53-9.47-1.18-16.72-.6-6.55-1.08-10.63l18,47L212,260.21l7.87,20.58,0,.11h.09l0,.05.16,0,.16,0,0,0h.09l0-.11L228,260.21,246,211.51l20.58-55.42.32-.87Z"/><path class="cls-2" d="M159.94,160.94q23.74,0,36.24-13t12.5-36.23q0-25-12.34-36.38T160.25,64A73.86,73.86,0,0,0,140,66.57a37.75,37.75,0,0,0-15,8.05,35.5,35.5,0,0,0-9.5,14.61q-3.32,9.1-3.32,22.51,0,24.15,12.82,36.67T159.94,160.94Z"/><path class="cls-3" d="M160.07,147.26q17,0,26-9.31t9-26q0-18-8.86-26.11t-25.9-8.13a53,53,0,0,0-14.54,1.82A27.1,27.1,0,0,0,135,85.31a25.48,25.48,0,0,0-6.82,10.49A47.45,47.45,0,0,0,125.77,112q0,17.34,9.2,26.32T160.07,147.26Z"/><path class="cls-2" d="M160.25,128.54q7.86,0,12-4.3t4.14-12q0-8.3-4.09-12.05t-12-3.75a24.47,24.47,0,0,0-6.71.84,12.51,12.51,0,0,0-5,2.67,11.76,11.76,0,0,0-3.15,4.84,21.9,21.9,0,0,0-1.1,7.46q0,8,4.25,12.15T160.25,128.54Z"/><rect class="cls-3" x="143.52" y="118.43" width="31.98" height="162.66"/><path class="cls-2" d="M160.25,128.54q7.86,0,12-4.3t4.14-12q0-8.3-4.09-12.05t-12-3.75a24.47,24.47,0,0,0-6.71.84,12.51,12.51,0,0,0-5,2.67,11.76,11.76,0,0,0-3.15,4.84,21.9,21.9,0,0,0-1.1,7.46q0,8,4.25,12.15T160.25,128.54Z"/><path class="cls-2" d="M100.1,120.41V261.78h25.31l7.65,19.5h42.65Z"/><path class="cls-2" d="M25,281.28H67.82l7.33-19.5h25.48V120.41Z"/><rect class="cls-2" x="66.32" y="228.95" width="22.31" height="52.32"/><rect class="cls-2" x="112.19" y="228.95" width="20.67" height="52.32"/><rect class="cls-4" x="87.65" y="255.16" width="25.36" height="26.18"/><polygon class="cls-4" points="99.79 256.92 73.26 256.92 98.63 178.24 99.79 178.24 100.94 178.24 126.1 256.92 99.79 256.92"/><text class="cls-5" transform="translate(267.72 314.92) scale(1.01 1)">™</text></g></svg>