<svg xmlns="http://www.w3.org/2000/svg" viewBox="0 0 216 195.64"><defs><style>.cls-1{fill:#8fd7eb;}.cls-2{fill:#ea4234;}.cls-3{fill:#fff;}.cls-4{fill:#151515;}</style></defs><title>Asset 3</title><g id="Layer_2" data-name="Layer 2"><g id="Layer_3" data-name="Layer 3"><path class="cls-1" d="M193.38,93.32l-.17,0v0h-1.82l-12.16,37.83L162,177.79h-6V145.21q1.47-6.66,3.06-14.2a144.54,144.54,0,0,1,4.31-15.87l17.77-50.07H216V194.46H190.55V151.65q0-9.84.26-18.94t.67-16.7q.44-7.61,1-13.45c.32-3.49.6-6.33.86-8.52l.25-.7Z"/><path class="cls-1" d="M193.38,93.32h0l-.17,0v0h-1.82l-12.16,37.84L162,177.79h-6V145.21h-.84q-1.47-6.66-3.05-14.2a149.8,149.8,0,0,0-4.31-15.87L130.57,65.06H95v129.4h25.46V151.65q0-9.84-.26-18.94t-.69-16.7q-.42-7.62-.94-13.45c-.32-3.51-.61-6.35-.87-8.55l14.4,37.84,17.47,45.94,6.3,16.55,0,.09h.07v0l.13,0,.13,0v0h.07l0-.09,6.11-16.55,14.48-39.17L193.29,94l.26-.69Z"/><path class="cls-2" d="M107.94,77.94q19,0,29-10.43t10-29.14q0-20.14-9.87-29.26T108.19,0A58.66,58.66,0,0,0,92,2,30.23,30.23,0,0,0,80,8.51a28.58,28.58,0,0,0-7.59,11.75q-2.67,7.32-2.66,18.11,0,19.43,10.25,29.5T107.94,77.94Z"/><path class="cls-3" d="M108.07,64.34q12.38,0,18.88-6.79t6.51-19q0-13.11-6.43-19T108.24,13.6a38,38,0,0,0-10.55,1.33,19.59,19.59,0,0,0-7.83,4.21,18.74,18.74,0,0,0-5,7.65,34.93,34.93,0,0,0-1.73,11.79q0,12.64,6.68,19.2T108.07,64.34Z"/><path class="cls-3" d="M108.05,66.94q13.64,0,20.81-7.49T136,38.54q0-14.46-7.09-21T108.23,11A42.36,42.36,0,0,0,96.6,12.46,21.66,21.66,0,0,0,88,17.11a20.47,20.47,0,0,0-5.46,8.43,38.46,38.46,0,0,0-1.9,13q0,13.93,7.36,21.17T108.05,66.94Z"/><path class="cls-2" d="M108.2,51.88q6.28,0,9.6-3.46t3.31-9.65q0-6.68-3.27-9.69t-9.56-3a19.91,19.91,0,0,0-5.37.67,10.07,10.07,0,0,0-4,2.15,9.52,9.52,0,0,0-2.52,3.89,17.67,17.67,0,0,0-.88,6q0,6.43,3.4,9.77T108.2,51.88Z"/><rect class="cls-3" x="94.6" y="62.69" width="26" height="132.96"/><path class="cls-2" d="M60.07,65.34V179.05H80.33l6.12,15.68h34.12Z"/><path class="cls-2" d="M0,194.73H34.25l5.86-15.68H60.49V65.34Z"/><rect class="cls-4" x="50.11" y="174.19" width="20.29" height="20.25"/><rect class="cls-2" x="33.05" y="152.64" width="17.85" height="42.08"/><rect class="cls-2" x="69.74" y="152.64" width="16.53" height="42.08"/><polygon class="cls-4" points="59.82 175.13 38.6 175.13 58.9 111.85 59.82 111.85 60.74 111.85 80.87 175.13 59.82 175.13"/></g></g></svg>