<?xml version="1.0" standalone="no"?>
<!DOCTYPE svg PUBLIC "-//W3C//DTD SVG 1.1//EN" "http://www.w3.org/Graphics/SVG/1.1/DTD/svg11.dtd" >
<svg>
<metadata>
Created by FontForge 20110222 at Mon Mar  7 08:36:16 2011
 By www-data
Generated by Fontographer 3.5
</metadata>
<defs>
<font id="SteamerRegular" horiz-adv-x="0" >
  <font-face 
    font-family="Steamer"
    font-weight="5"
    font-stretch="normal"
    units-per-em="1000"
    panose-1="0 0 0 0 0 0 0 0 0 0"
    ascent="800"
    descent="-200"
    x-height="700"
    cap-height="700"
    bbox="-23 -221 1092 954"
    underline-thickness="20"
    underline-position="-190"
    unicode-range="U+0020-2122"
  />
    <missing-glyph />
    <glyph glyph-name="space" unicode=" " horiz-adv-x="467" 
 />
    <glyph glyph-name="exclam" unicode="!" horiz-adv-x="313" 
d="M243 483q-35 -99 -46 -138t-11 -98q-8 -10 -24 -10q-7 0 -11 1q-13 10 -16 41t-6 37q-35 130 -69 261q0 39 16 71.5t44.5 43.5t48.5 11t36.5 -9t32 -28.5t20.5 -38t5 -40.5q0 -24 -5 -49t-15 -55zM248 92q0 -36 -28 -66t-63 -30t-61 27t-26 61q0 39 25.5 67.5t64.5 28.5
q31 0 59.5 -27.5t28.5 -60.5z" />
    <glyph glyph-name="quotedbl" unicode="&#x22;" horiz-adv-x="395" 
d="M374 700l-19 -206h-105l-31 206h155zM178 700l-19 -206h-105l-31 206h155z" />
    <glyph glyph-name="numbersign" unicode="#" horiz-adv-x="568" 
d="M531 492l-12 -58h-112l-36 -168h112l-13 -58h-111l-43 -201h-58l42 201h-93l-43 -201h-58l43 201h-112l13 58h111l36 168h-112l12 58h112l43 201h58l-43 -201h94l42 201h59l-43 -201h112zM349 434h-94l-35 -168h93z" />
    <glyph glyph-name="dollar" unicode="$" horiz-adv-x="476" 
d="M459 265q3 -18 3 -36q0 -99 -56.5 -138.5t-86.5 -49t-62 -14.5q-6 -3 -7 -16.5t-8 -12.5q-3 1 -10.5 1h-10.5q-16 0 -16 10q0 17 -9 20q-56 5 -101 26.5t-72 65.5q-14 28 -14 57q0 16 6 32.5t19.5 27t29 16t24.5 5.5q17 0 29.5 -5.5t31 -23t18.5 -48.5q0 -14 -5.5 -26.5
t-19 -25t-18.5 -20.5q-1 -6 4.5 -11t12.5 -10q22 -7 44 -13q11 0 20 9q0 34 1 67.5t2 66.5q6 2 17 -1.5t24 -8.5q2 -7 2 -19t1 -19q0 -9 -1 -27t-1 -27q0 -15 3 -32q3 -5 8 -5q13 4 18 4q21 9 36 24t15 34q1 9 1 14q0 29 -15 47q-29 26 -113.5 65.5t-130.5 81t-46 125.5
q0 9 4.5 42t38 76.5t80.5 62.5q28 7 56 15q4 4 4 10q-1 8 -1 11q0 7 7 7h17.5t16.5 1q4 0 4 -13q0 -6 6.5 -11t26.5 -6.5t40 -6.5t49 -24t44.5 -43.5t15.5 -49.5q0 -24 -8 -38.5t-18.5 -22t-21 -10t-23.5 -2.5q-36 0 -51 14.5t-23 25.5t-6 30q-2 12 11 31t13 26q0 10 -13 18
q-4 0 -15 3t-18 1l-8 -8l-1 -109l-4 -5q-14 7 -22.5 11.5t-15.5 12.5q-2 8 -2 17.5v14.5v35q0 14 -1 21q-4 5 -9 5q-4 0 -12.5 -5.5t-11.5 -6.5q-13 -13 -19 -24t-6 -26q0 -4 4 -18.5t17.5 -29t62 -38.5t127.5 -63q90 -55 98 -141z" />
    <glyph glyph-name="percent" unicode="%" horiz-adv-x="678" 
d="M345 467q-21 -33 -59 -50.5t-80 -17.5q-6 5 -6 16q1 13 1 18q18 16 23.5 36.5t5.5 49.5q0 9 -0.5 18t-0.5 19q0 14 1 21q0 26 -5.5 44.5t-23.5 30.5q-1 10 -1 15q0 15 10 16q41 0 74 -15t56 -46.5t23 -78.5q0 -43 -18 -76zM173 653q-10 -10 -19 -25t-9 -30
q0 -11 -1 -34.5t-1 -34.5q0 -34 5 -55t22 -38q1 -15 1 -22q0 -12 -9 -15q-45 0 -84.5 23t-54.5 65q-8 27 -8 53q0 31 8.5 55t30 45t51 31t64.5 10q5 0 5 -14v-8t-1 -6zM531 690q0 -1 -84 -163.5t-148 -285.5t-119 -227q-4 -4 -11 -4q-15 3 -22 3v8q28 55 117 233t123.5 246
t69 130.5t36.5 62t5 -0.5zM645 222q15 -30 15 -69q0 -50 -25 -84q-25 -27 -60.5 -41.5t-73.5 -14.5q-3 6 -3 20v18q18 12 24 30t6 45q0 8 -1 25t-1 26q1 11 1 17q0 22 -5.5 39t-20.5 31q-1 3 0 13.5t1 16.5q12 2 18 2q17 0 30 -3.5t36 -13.5t33 -18.5t26 -38.5zM470 263
q-9 -11 -16 -26.5t-7 -33.5q0 -16 -0.5 -32.5t-0.5 -32.5t1 -33t3 -26.5t8.5 -18t8.5 -13.5v-33q-43 0 -77.5 16t-54.5 48t-20 71q0 45 22 84q22 31 55 46t74 15z" />
    <glyph glyph-name="ampersand" unicode="&#x26;" horiz-adv-x="731" 
d="M565 582q0 -37 -19 -70.5t-51 -52.5l-25 47q19 18 29 34t10 39t-12.5 41t-34.5 29v57q44 -6 73.5 -42.5t29.5 -81.5zM703 28q0 -17 -11 -22.5t-21 -5.5h-221l-228 410q-15 26 -24.5 62t-9.5 69q0 75 60.5 124.5t137.5 49.5l34 -3v-63q-33 -12 -33 -46q0 -15 5 -28.5
t14 -30.5l238 -443q10 -19 18 -29.5t24.5 -18.5t16.5 -25zM669 391q0 -41 -15.5 -71.5t-47.5 -66.5l-26 48q15 23 15 49q0 22 -10.5 40t-10.5 25q0 16 19 25t38 9q22 0 30 -16.5t8 -41.5zM392 26q-73 -40 -143 -40q-94 0 -158 62t-64 139q0 67 48 121t116 78l26 -47
q-6 -8 -9.5 -14.5t-3.5 -14.5q0 -16 7 -27l93 -174q12 -22 21 -28t24 -6h15z" />
    <glyph glyph-name="quotesingle" unicode="'" horiz-adv-x="341" 
d="M251 700l-19 -206h-105l-31 206h155z" />
    <glyph glyph-name="parenleft" unicode="(" horiz-adv-x="243" 
d="M212 20q10 -13 -6 -18q-24 0 -45 23q-69 62 -106.5 148t-37.5 179q0 77 31.5 160t109.5 158q12 7 36 13h12v-13q-55 -67 -85 -150t-30 -172q0 -36 4 -66t15 -67q13 -50 34 -87t68 -108z" />
    <glyph glyph-name="parenright" unicode=")" horiz-adv-x="261" 
d="M238 378q0 -121 -37 -214.5t-125 -158.5q-9 -11 -15 -3q-5 2 -5 17q51 61 79.5 143t28.5 169q0 103 -40.5 189.5t-88.5 149.5q-4 18 14 18q6 -1 9 0.5t6 3.5q2 0 13.5 -11t51 -52.5t70 -108t39.5 -142.5z" />
    <glyph glyph-name="asterisk" unicode="*" horiz-adv-x="275" 
d="M243 521q3 -6 -1 -14l-6 -12q-7 -4 -14 -4q-11 0 -27.5 14t-36.5 31q-2 1 -10 -5q-1 -12 5.5 -37t6.5 -27q0 -5 -2 -13q-6 -6 -14.5 -8t-14.5 -1q-12 9 -12 25q0 9 6 28t6 29q-2 8 -5 9q-13 0 -34.5 -20.5t-31.5 -20.5q-11 0 -20 12q-2 8 -2 11q0 7 7.5 13.5t33 13
t34.5 18.5q-7 12 -39 21.5t-32 24.5q0 8 4 16q9 6 18 6q12 0 32 -20.5t32 -21.5q5 5 5 14q0 8 -2 14t-4 15.5t-4 24.5q0 10 7 19.5t19 9.5q13 0 16 -18q-6 -40 -11 -79q3 -4 9 -1.5t14 7.5l27.5 27.5t26.5 7.5q14 -6 14 -18q3 -8 -2.5 -15t-10.5 -9.5t-29.5 -8.5t-33.5 -17
q0 -9 8.5 -12t14.5 -5.5t26 -8t27 -15.5z" />
    <glyph glyph-name="plus" unicode="+" horiz-adv-x="586" 
d="M555 263h-195v-193h-134v193h-195v132h195v200h135v-200h194v-132z" />
    <glyph glyph-name="comma" unicode="," horiz-adv-x="215" 
d="M173 128q15 -24 15 -58q0 -37 -17.5 -69t-49 -51t-67.5 -19q-4 0 -6 2.5t-5 10.5q0 23 27 30t33 15q12 10 7 21q-5 6 -20 8t-19 6q-20 6 -32 24t-12 39q0 55 28.5 69t43.5 14q19 0 40.5 -12t33.5 -30z" />
    <glyph glyph-name="hyphen" unicode="-" horiz-adv-x="457" 
d="M441 281h-417v137h417v-137z" />
    <glyph glyph-name="hyphen" unicode="&#xad;" horiz-adv-x="457" 
d="M441 281h-417v137h417v-137z" />
    <glyph glyph-name="period" unicode="." horiz-adv-x="200" 
d="M179 78q0 -32 -24 -58t-55 -26q-30 0 -52.5 23.5t-22.5 52.5q0 34 22 59t56 25q27 0 51.5 -23.5t24.5 -52.5z" />
    <glyph glyph-name="slash" unicode="/" horiz-adv-x="327" 
d="M294 686q0 -2 0.5 -4t-3.5 -21q-14 -42 -62 -183.5t-85 -251t-76 -215.5q-5 -5 -12 -5q-13 3 -18 3l-5 5q37 112 68.5 207.5t78 231t81.5 233.5q6 3 13 3q13 -2 20 -3z" />
    <glyph glyph-name="zero" unicode="0" horiz-adv-x="602" 
d="M288 701q1 -14 1 -22q0 -17 -5 -26t-22 -9q-13 -12 -19.5 -30.5t-6.5 -36.5v-484q0 -36 29 -45q2 -4 2.5 -5.5t3.5 -4.5l-3 -41q-16 -2 -31 2.5t-68 28t-98 119.5t-45 213q0 101 37.5 183t118.5 135q49 24 101 30q2 -1 4 3q0 -5 1 -10zM550 201q-20 -66 -69.5 -124
t-89.5 -68l-52 -13t-22 -1q-2 6 -2 20q1 18 1 28q15 6 25.5 11.5t16.5 16.5l4 28v513q0 12 -6.5 22.5t-18.5 18.5q-18 0 -10 15q-1 14 -1 22q0 13 8 18q68 0 125.5 -53t85.5 -132.5t28 -170.5q0 -77 -23 -151z" />
    <glyph glyph-name="one" unicode="1" horiz-adv-x="373" 
d="M352 33q0 -15 -4.5 -24t-9.5 -9h-271q-18 0 -28 15q-3 17 6 31q5 4 23.5 8.5t24.5 17.5q4 18 4 29l-1 509q0 14 -30.5 23.5t-30.5 20.5q0 7 5 14.5t8.5 9.5t33 5.5t103 10t95.5 6.5q4 0 9 -1v-607q5 -25 21 -34q16 -5 27.5 -8.5t14.5 -16.5z" />
    <glyph glyph-name="two" unicode="2" horiz-adv-x="547" 
d="M229 507q-6 -23 -27.5 -42t-40.5 -22.5t-27 -3.5q-18 0 -34.5 5.5t-32.5 17.5q-32 35 -32 81q0 13 6 40t41 60t65 41.5t46 13.5q11 0 14.5 -10t3.5 -18q0 -28 -27 -34q-3 -6 -3 -10q0 -8 15 -18.5t25.5 -25t10.5 -48.5q0 -13 -3 -27zM481 418q-33 -76 -156 -128t-145 -69
q-18 -2 -45.5 -10t-33.5 -9q-1 1 0 6q16 20 94 86t88.5 115t10.5 97q0 36 -5 65.5t-18 58.5q-12 6 -16 15.5t-4 21.5q1 18 1 27q6 8 21 8q7 0 16 -1t10 -1q52 -4 102.5 -34t73.5 -68.5t23 -97.5q0 -45 -17 -82zM517 207q0 -58 -18.5 -106t-50.5 -74t-55.5 -33.5t-49.5 -7.5
q-31 0 -111 21.5t-111 21.5q-14 4 -37.5 -12t-31.5 -16q-4 0 -10 3t-12 18q0 45 26.5 86t57 53t51.5 15t41 3q37 0 108 -12.5t101 -12.5q10 0 19.5 1.5t20 8.5t18.5 31t22 24q5 0 11 -2.5t8.5 -3.5t2.5 -6z" />
    <glyph glyph-name="three" unicode="3" horiz-adv-x="541" 
d="M221 521q-8 -18 -17 -31t-24 -24q-20 -9 -45 -9q-28 0 -49 13t-32 35t-11 47q0 14 6 42.5t47.5 62t91.5 44.5q28 0 25 -19v-21q-3 -12 -16 -14q-8 -5 -14 -8.5t-7 -10.5q1 -11 10.5 -19.5t18.5 -16.5q18 -21 18 -51q0 -13 -2 -20zM518 221q0 -7 1 -15t1 -13
q0 -95 -77 -155q-36 -23 -81.5 -32.5t-99.5 -9.5q-4 8 -4 22q0 11 1.5 19t1.5 10q27 19 35 26t8 23q7 39 7 86q0 28 -1 56t-2 57q-2 3 -7 14.5t-12 16.5q-6 7 -38.5 13t-32.5 21q0 10 8 23q35 8 52 15t24 22q11 46 11 94q0 22 -3 46.5t-7.5 44t-16 30t-29.5 19.5q-4 8 -4 17
q1 13 1 23q6 6 15.5 8t21.5 2q9 0 17.5 -1t37 -4t72.5 -29.5t65 -65.5t21 -84q0 -42 -18.5 -72.5t-41.5 -47.5t-51 -30q-6 -4 -4 -12q47 -17 85 -54.5t44 -82.5zM216 41q-1 -4 -1 -11t1 -13q0 -14 -7 -19q-53 0 -99.5 24.5t-72.5 70.5q-7 15 -10.5 31.5t-3.5 33.5
q0 28 13.5 48.5t37 32t52.5 11.5q9 -1 14 -1q20 -3 32.5 -11t26 -27.5t13.5 -45.5q0 -34 -19 -59q-13 -13 -22 -21t-4 -20q7 -9 25.5 -13t23.5 -11z" />
    <glyph glyph-name="four" unicode="4" horiz-adv-x="586" 
d="M554 179q-12 -12 -43 -13t-32.5 -2.5l-7.5 -7.5l1 -74q0 -18 30.5 -25t30.5 -23l-2 -11q-6 -17 -23 -21t-41 -4h-233q-6 0 -13.5 7.5t-9.5 21.5q-2 8 2.5 16.5t12.5 12.5q14 3 29.5 7t15.5 19v487q0 4 2.5 8t26 33.5t63.5 80.5q8 4 22.5 6t31.5 2q24 0 39 -2.5t15 -5.5
v-459q0 -15 43 -15.5t43 -21.5q0 -7 -3 -16zM231 173q-1 -4 -6.5 -4t-6.5 -1q-44 0 -111 2.5t-78 2.5q-7 4 -9 13t-3 19q5 24 31 61t28 40l150 208q2 0 5 8v-13q0 -10 1 -21l2 -22q0 -19 -8 -32q-38 -49 -78.5 -106t-63.5 -90q0 -2 -1.5 -5t1.5 -6l6 -7q12 -1 21 -1.5
t15 -0.5q13 0 39.5 1t39.5 1q17 0 26 -1q5 -8 5 -21q0 -12 -5 -25z" />
    <glyph glyph-name="five" unicode="5" horiz-adv-x="547" 
d="M489 700q-24 -50 -64 -91.5t-87 -58.5q-30 -8 -66.5 -12.5t-76.5 -4.5q-61 0 -120 9l-4 5q0 42 3.5 70t14.5 95q117 -11 151 -13.5t80 -2.5q52 0 86.5 3.5t75.5 14.5q8 3 11 3q1 0 0.5 -4.5t-4.5 -12.5zM214 386q-7 -6 -26 -11.5t-24 -8t-34 -20.5t-41 -18q-11 0 -21 7
q-12 12 -12 29q0 4 3.5 22t3.5 28q0 6 -1 10q2 7 3 37.5t10 41.5q3 0 13 2t15 2q14 0 14 -14q0 -10 -2 -32.5t-2 -23.5q0 -16 4 -28q8 -4 23.5 4t30.5 12t41 10q1 -2 2 -6.5t1 -14.5q-1 -19 -1 -28zM496 336q26 -50 26 -119q0 -38 -8.5 -68.5t-36.5 -69.5t-82.5 -61.5
t-123.5 -22.5q-9 3 -9 18q0 8 1 15.5t2 15.5q31 16 40 44.5t9 73.5q-1 18 -1.5 27.5t-0.5 19.5v35q0 63 -11 90t-25.5 37.5t-17.5 18.5t-3 18t5 33q10 5 28 5q7 0 16.5 -0.5t22.5 -1.5q61 -12 101 -34.5t68 -73.5zM218 41q3 -16 3 -25q0 -14 -9 -19q-103 0 -172 91
q-16 26 -16 64q0 16 5 38q10 26 35.5 45t52.5 19q8 1 11 1q50 0 72 -40q15 -23 15 -58q0 -24 -4.5 -32.5t-20.5 -26.5t-16 -31q6 -10 22.5 -14t21.5 -12z" />
    <glyph glyph-name="six" unicode="6" horiz-adv-x="580" 
d="M515 514q-10 -26 -33 -40t-51 -14q-30 0 -55 12t-34.5 32.5t-9.5 34.5q0 20 8.5 36t28.5 42q2 9 -5.5 16.5t-19.5 14.5q-12 0 -17 10q-3 11 -3 20q0 14 8 25q52 0 98 -23t69 -58.5t23 -71.5q0 -21 -7 -36zM283 698q0 -9 1 -20t1 -12q0 -10 -4 -18q-15 -7 -24.5 -13.5
t-14.5 -17.5l-9 -45l2 -489q0 -11 12.5 -21t24.5 -18q3 -7 1 -21t-1 -21q-5 -4 -13 -4q-6 0 -19 4t-20 4q-94 39 -142.5 129.5t-48.5 201.5q0 110 37 197t121 141q18 9 45.5 18.5t41.5 9.5q9 0 9 -5zM525 337q30 -50 30 -116q0 -77 -40 -129q-81 -95 -196 -95q-6 8 -6 24
q1 17 1 25q15 8 24 14t9 16l1 216q0 28 -25 41q-8 2 -11 2q-7 0 -21 -5t-17 -6q-1 9 -2 19.5t-1 12.5q0 17 7 24q21 13 46.5 19.5t54.5 6.5q41 0 70.5 -9.5t44 -19.5t31.5 -40z" />
    <glyph glyph-name="seven" unicode="7" horiz-adv-x="467" 
d="M453 675q-5 -52 -27 -91.5t-65 -58.5q-12 -4 -27 -6t-29 -2q-28 0 -99.5 15.5t-100.5 15.5q-14 0 -25.5 -6t-15.5 -20q-4 -7 -7 -26t-7 -26q-9 0 -17.5 0.5t-16.5 3.5q0 41 3 66.5t22 140.5q6 6 15 6q11 -1 16 -1q4 -4 4 -15v-12q0 -17 14 -13q25 28 59.5 40.5t75.5 12.5
q52 0 104 -18q8 -4 22.5 -9.5t24.5 -5.5q17 0 32.5 8.5t26.5 14.5q7 1 12 -5.5t6 -8.5zM374 478q-23 -56 -37 -105t-14 -95q0 -21 3 -42q7 -32 13 -62t6 -54q0 -31 -8.5 -54.5t-30.5 -42.5q-35 -24 -74 -24q-7 1 -10 1q-28 5 -52 24.5t-32 46.5q-14 36 -14 73q0 57 30 107
t89 121t78 105q13 5 25.5 8t27.5 5q4 5 7 10t8 14q-3 -7 -8 -19.5t-7 -16.5z" />
    <glyph glyph-name="eight" unicode="8" horiz-adv-x="572" 
d="M541 214q3 -21 3 -42q0 -38 -12 -68t-40 -53q-33 -30 -77 -40.5t-102 -10.5q-6 17 -6 35q0 7 1 11q18 11 25.5 30t7.5 41q0 27 -3 85t-3 87q0 14 -7.5 25.5t-22.5 26.5q0 28 3 42t19 24q5 17 8 25q0 15 1 48t1 50q0 27 -2 50.5t-9 45.5q-3 6 -13.5 14t-12.5 13
q-2 23 -2 33q0 12 7 12q65 0 114 -24t70.5 -53.5t27 -50.5t5.5 -46q0 -39 -13 -72q-15 -29 -42 -50t-60 -35v-8q50 -20 89 -58t45 -87zM268 6q0 -4 -4.5 -7.5t-8.5 -1.5q-72 0 -128.5 25.5t-76 73t-19.5 89.5q0 59 29 97q23 25 51 44.5t56 27.5q3 2 3 5t1 7q-36 11 -66 34
t-41 47.5t-14.5 40t-3.5 36.5q0 53 27.5 94t75 60.5t106.5 19.5q2 0 3.5 -0.5t1.5 -9.5v-40q-20 -19 -28 -43.5t-8 -56.5q0 -20 4 -59t4 -57q3 -13 12 -26q13 -15 19 -23v-20q0 -18 -4 -29.5t-18 -20.5q-6 -21 -8.5 -40.5t-2.5 -44.5q0 -22 1.5 -57t1.5 -38q0 -33 4.5 -52
t25.5 -30q3 -7 3 -22.5t2 -22.5z" />
    <glyph glyph-name="nine" unicode="9" horiz-adv-x="585" 
d="M320 314q-21 -16 -46 -24t-52 -8q-10 0 -23 2t-40.5 8.5t-63 38t-46.5 72.5q-10 31 -10 68q0 76 40 134q78 93 201 93q2 -1 3.5 1t2.5 4q-1 -5 -1 -10v-27q0 -14 -4 -22t-16 -9q-11 -8 -14.5 -25.5t-3.5 -37.5v-164q0 -18 4.5 -29t16.5 -19q9 -3 16 -3q6 0 17 3t19 5v-51
zM529 535q38 -85 38 -192q0 -73 -19.5 -140.5t-57.5 -115.5t-85 -73t-101 -25q-2 6 -2 18q0 8 1 14.5t2 13.5q26 6 35.5 23.5t15.5 79.5l2 477q0 9 -15.5 20.5t-17.5 15.5q1 9 1.5 21.5t0.5 18.5q5 4 13 4q6 0 14 -3t45 -14t62.5 -31t67.5 -112zM259 30q1 -12 1 -19
q0 -15 -6 -21q-57 0 -105 26.5t-74 75.5q-9 21 -9 46q0 20 4.5 35t26 39.5t70.5 24.5q23 0 47 -14t32.5 -33t8.5 -42q0 -11 -3 -21t-17.5 -28t-14.5 -29q0 -6 4.5 -13.5t18.5 -16t16 -10.5z" />
    <glyph glyph-name="colon" unicode=":" horiz-adv-x="201" 
d="M177 290q0 -29 -25.5 -47.5t-62.5 -18.5q-27 0 -46.5 24.5t-19.5 55.5q0 34 24 54t56 20q35 0 54.5 -25t19.5 -63zM177 71q0 -29 -25.5 -47.5t-62.5 -18.5q-27 0 -46.5 24.5t-19.5 55.5q0 33 24.5 53.5t55.5 20.5q35 0 54.5 -25t19.5 -63z" />
    <glyph glyph-name="semicolon" unicode=";" horiz-adv-x="219" 
d="M191 313q0 -35 -22.5 -59.5t-56.5 -24.5q-35 0 -59.5 22.5t-24.5 56.5q0 35 22.5 59.5t56.5 24.5q35 0 59.5 -22.5t24.5 -56.5zM184 131q13 -23 13 -57q0 -43 -21 -79q-20 -29 -48.5 -44.5t-62.5 -18.5q-16 2 -19 15q-4 13 7 19.5t22.5 11.5t21 10t17.5 13q0 15 -19.5 19
t-38 14.5t-21 30t-2.5 30.5q0 17 8 31.5t23.5 31.5t45.5 17q12 0 24.5 -4t23.5 -7q10 -6 26 -33z" />
    <glyph glyph-name="less" unicode="&#x3c;" horiz-adv-x="569" 
d="M532 -8l-495 211v88l495 210v-105l-354 -149l354 -150v-105z" />
    <glyph glyph-name="equal" unicode="=" horiz-adv-x="499" 
d="M459 346h-417v132h417v-132zM459 146h-417v132h417v-132z" />
    <glyph glyph-name="greater" unicode="&#x3e;" horiz-adv-x="569" 
d="M532 203l-495 -211v105l354 150l-354 149v105l495 -210v-88z" />
    <glyph glyph-name="question" unicode="?" horiz-adv-x="567" 
d="M263 655q-15 -6 -19 -8.5t-4 -13.5q0 -9 5.5 -23t5.5 -28q0 -34 -25.5 -57.5t-59.5 -23.5q-38 0 -65 24t-27 62q0 46 47.5 83.5t141.5 37.5v-53zM493 506q0 -87 -59.5 -146.5t-120 -67.5t-66.5 -12.5t-6 -25.5q0 -15 -5.5 -23t-20.5 -8q-18 0 -22.5 10.5t-4.5 31.5v153
q0 24 3.5 28.5t27.5 4.5q54 0 87 35t33 89q0 24 -7 43.5t-24 33.5v53q76 -8 130.5 -65t54.5 -134zM327 94q0 -40 -28 -69t-71 -29q-42 0 -70.5 28.5t-28.5 69.5q0 40 28.5 69.5t70.5 29.5q41 0 70 -30t29 -69z" />
    <glyph glyph-name="at" unicode="@" horiz-adv-x="766" 
d="M710 350q-14 -74 -51 -126t-65.5 -63.5t-43 -14.5t-23.5 -3q-33 0 -55.5 18.5t-25.5 46.5v14q-8 -18 -31 -46.5t-70 -28.5q-23 0 -73.5 22.5t-50.5 161.5l4 34q9 60 34.5 106t52.5 65.5t49.5 26.5t39.5 7q64 0 87 -58l8 50h49l-35 -204l-12 -81q-3 -21 -3 -34
q0 -17 4 -26q3 -13 13.5 -20.5t24.5 -7.5q4 0 14 3t21.5 12t29.5 29.5t32 53t20 65.5t6 62q0 108 -68.5 176.5t-175.5 68.5q-21 0 -87 -9.5t-136.5 -96t-70.5 -208.5v-17q2 -12 2 -18q0 -27 7 -50.5t32.5 -79t93 -100.5t148.5 -45q55 0 111 22.5t88 51t42.5 40.5t26.5 33
l14 -49l-23 -28q-113 -120 -264 -120q-135 0 -231.5 88.5t-104.5 164t-8.5 85.5t-0.5 24q0 105 46 187t106 116.5t92.5 45.5t63 14.5t53.5 3.5q130 0 215 -84t85 -213q0 -32 -6 -67zM467 467q-3 26 -20.5 42.5t-42.5 16.5q-12 0 -32 -8t-37.5 -31t-27 -51.5t-12.5 -41
t-6.5 -32t-5 -37t-1.5 -41.5q0 -44 15.5 -66.5t43.5 -26.5q30 -4 52.5 18.5t35 56.5t18 57t8.5 38l4 17l5 33q1 5 2 17.5t1 26.5v12z" />
    <glyph glyph-name="A" unicode="A" horiz-adv-x="642" 
d="M642 18q-7 -9 -18 -13.5t-24 -4.5h-258q-6 0 -10.5 7t-7.5 17q0 14 21 32t21 32q0 4 -2.5 12.5t-7.5 34.5t-10.5 32t-9.5 7h-127q-6 0 -6 7q1 8 1 10q4 6 8 23.5t12 23.5h94q7 7 7 17q0 6 -3 17t-3 16q-20 75 -43.5 171.5t-44.5 186.5q1 16 3 33q5 21 20 21h183
q6 0 27.5 -88t31 -124t46 -174t64.5 -240q4 -7 22 -20t18 -23q0 -6 -4 -13zM233 460q-49 -196 -59.5 -238.5t-23.5 -106.5q-5 -42 32 -56q11 -8 18.5 -13t9.5 -13q4 -11 -1.5 -22t-13.5 -11h-168q-5 2 -12.5 7.5t-9.5 15.5q0 14 21.5 24.5t31 18.5t19.5 24.5t42.5 137
t89.5 336.5q2 -2 4 -9z" />
    <glyph glyph-name="B" unicode="B" horiz-adv-x="674" 
d="M650 186q0 -50 -21.5 -91t-61.5 -62t-89.5 -27t-114.5 -6q-10 0 -11 6q-1 13 -1 20q0 22 12 28q25 0 37 15.5t18 23.5t6 15v50q0 55 -3 86t-15 61q-9 16 -21.5 23t-32.5 12q-7 7 -7 19l2 28q6 4 25 9.5t27 16.5t11.5 31t3.5 49q0 12 -1 38.5t-1 38.5q0 23 -9 42.5
t-20 24.5t-23.5 7t-15.5 7q-2 14 -2 23q0 17 10 26q140 0 213 -48.5t73 -121.5t-44 -107.5t-101 -50.5q-1 -5 -1 -10q61 -12 109.5 -58t48.5 -118zM305 6q-2 -6 -5 -6h-244q-7 0 -13 10.5t-7 13.5q0 19 20.5 28.5t23.5 21.5v544q0 15 -25 27t-25 26q0 8 2 12q13 13 30 15
t33 2h203l7 -5v-689z" />
    <glyph glyph-name="C" unicode="C" horiz-adv-x="597" 
d="M555 466q0 -11 -4.5 -19t-15.5 -10q-11 -4 -25 6q-16 45 -27.5 76.5t-32 60t-42.5 48.5t-51 24q-7 7 -7 18q2 14 2 21q0 3 -2 11q6 5 16 5q6 0 17.5 -2.5t16.5 -2.5q38 -14 77 -27q21 0 33 23q3 2 15.5 20t18.5 18q10 0 10 -36zM319 0q-9 -3 -19 -3t-27 2.5t-21 2.5
q-67 10 -124 64t-83 124q-23 78 -23 162q0 88 26.5 161.5t84.5 127.5q37 31 73 49t75 18h12q9 -2 13 -2l2 2q2 -1 2 -6q1 -6 1 -20v-16q-3 -8 -4 -11q-19 -9 -35 -27t-16 -46v-116v-356q0 -18 16 -30t47 -27q2 -8 2 -25q0 -19 -2 -28zM555 200q7 -11 7 -23q0 -11 -7.5 -32
t-21 -48t-63 -62t-103.5 -35q-2 14 -3.5 24t-1.5 12q0 18 9 24q45 7 84 38t47 57.5t11.5 37.5t12.5 14q9 5 14 5q6 0 15 -12z" />
    <glyph glyph-name="D" unicode="D" horiz-adv-x="670" 
d="M594 133q-39 -62 -101 -97.5t-133 -35.5q-7 0 -7 12q0 5 2 17t2 17q19 12 32 20t18 22q6 8 6 22l1 452q0 23 -9 43t-31 30q-10 3 -16.5 5t-9.5 8q-1 22 -1 32q0 17 10 20q84 0 128 -19t87.5 -84t59.5 -126t16 -127q0 -60 -13 -114t-41 -97zM311 14q-1 0 -4.5 -7.5
t-5.5 -8.5q-41 0 -124.5 1t-121.5 1q-13 0 -20 16q-2 8 -2 10q0 11 9 20q17 8 27.5 14t10.5 18v538q0 16 -28 28t-28 25q0 6 4 15.5t15 15.5h263l5 -5v-681z" />
    <glyph glyph-name="E" unicode="E" horiz-adv-x="604" 
d="M562 696l-1 -198q-7 -13 -25 -13q-5 0 -13 2q-6 7 -27.5 49.5t-37.5 55.5q-18 18 -40 27t-59 18q-6 4 -6 6q1 3 1 10q-2 19 -2 28q0 17 13 19h193zM472 228q0 -14 -13 -14q-5 0 -18 5q-12 11 -25.5 43t-19.5 39q-19 12 -28 17.5t-13 13.5v25t3 27q21 6 32 21t38 78
q10 19 17.5 27t13.5 8q12 0 12 -43zM317 4q-4 -2 -5 -3t-2 -1h-248q-9 0 -16 3.5t-11 12.5q-4 17 2.5 24.5t24.5 16.5t18 18v536q0 17 -26.5 30t-26.5 26q0 5 3 13q9 9 24 14.5t45 5.5h218v-696zM573 6q0 -3 -3.5 -4t-5.5 -2h-199q-9 0 -9 18q0 9 1.5 16.5t4.5 21.5
q52 5 94.5 40t57.5 84q4 10 9 21t17 13q3 0 11 3t12 3q10 0 10 -24v-190z" />
    <glyph glyph-name="F" unicode="F" horiz-adv-x="581" 
d="M560 699v-31t1 -59v-14v-12q0 -47 -2.5 -70.5t-17.5 -25.5q-19 -4 -29 11q-13 27 -29 58.5t-50 52t-79 30.5q-2 11 -2.5 18.5t-0.5 17.5q0 17 6 24h203zM472 233q0 -6 -7.5 -11.5t-10.5 -7.5q-20 -2 -29 18.5t-19.5 45.5t-48.5 46q-7 13 -7 35q0 12 2 18.5t2 9.5
q29 9 42.5 31t30.5 66q7 9 16 19.5t15 10.5t9.5 -9.5t3.5 -33.5zM364 9q-3 -2 -9 -5.5t-9 -3.5h-287q-9 0 -15 4.5t-11 14.5q-3 5 -0.5 11.5t5.5 13.5q19 9 30.5 15t11.5 19v541q0 13 -25.5 27.5t-25.5 25.5q0 5 5 13t16 11.5t27 3.5q17 -1 25 -1h203q2 0 3 -3.5t2 -4.5
v-613q0 -16 30 -27t30 -24q0 -7 -6 -18z" />
    <glyph glyph-name="G" unicode="G" horiz-adv-x="639" 
d="M575 457q-1 -4 -7 -9t-13 -9q-11 -3 -18 3t-25.5 52.5t-45.5 91.5t-82 61q-5 4 -22 4.5t-21 5.5v44q9 6 21 6q9 0 25 -3.5t20 -3.5q9 -3 37.5 -14t37 -13.5t10.5 -2.5q11 0 28 14t26 14q8 0 17.5 -8.5t9.5 -12.5q0 -36 2.5 -93t2.5 -67q0 -30 -3 -60zM306 0q-4 -2 -14 -2
q-7 0 -19 2t-17 2q-76 14 -136 81t-76 145q-7 24 -10 48.5t-3 52.5q0 24 3 47q0 97 40 178.5t121 123.5q41 15 59.5 20t30.5 4t12.5 1.5t2.5 6.5q1 -8 1 -15v-21q0 -18 -4.5 -28.5t-21.5 -16.5q-9 -14 -11.5 -33t-2.5 -46v-17l1 -420q0 -18 7 -33t22.5 -22t15.5 -29
q-1 -15 -1 -29zM612 347q2 -6 2 -11q0 -6 -2 -14t-4 -12q-9 -7 -17.5 -14t-8.5 -17v-184q-32 -34 -72.5 -54t-100.5 -38q-8 0 -23 -2.5t-19 -2.5q-5 0 -15 2q-4 10 -7 20t-3 14q0 9 14.5 18t21.5 36t7 70q0 15 -0.5 29.5t-0.5 28.5q0 42 -2.5 60.5t-15 23t-19.5 8.5t-13 12
q-3 14 3.5 21t14.5 11q27 3 57 3q16 0 48 -1t47 -1h28.5t29.5 1q25 0 37 -1.5t13 -5.5z" />
    <glyph glyph-name="H" unicode="H" horiz-adv-x="738" 
d="M711 674q2 -10 -3.5 -19.5t-20 -14t-20.5 -26t-6 -51.5v-19v-462q0 -17 26 -29t26 -24q0 -7 -4.5 -16t-26.5 -12t-53 -3q-34 0 -105 1t-106 1q-16 4 -22 20q0 11 1 16.5t9.5 12t15.5 13.5t7 16v233q0 6 -14 13l-64 -1q-2 7 -2 24q1 23 1 33q11 3 38 4.5t28 1.5q11 0 11 7
v218q0 15 -20 31t-20 25q0 8 9.5 17t26 12.5t37.5 3.5h28h191q25 0 32 -26zM350 675q6 -14 -9 -27q-9 -5 -18.5 -11.5t-9.5 -15.5v-543q0 -10 18.5 -26.5t18.5 -27.5q0 -9 -9.5 -17.5t-13.5 -8.5h-273q-9 0 -15 4.5t-11 13.5q-4 20 23 35.5t29 30.5v539q0 15 -25 25t-25 23
q0 5 3 14q8 11 24 14q15 1 31 3h140h58t32 -2q22 -4 32 -23z" />
    <glyph glyph-name="I" unicode="I" horiz-adv-x="390" 
d="M361 677q3 -5 3 -10q0 -7 -4.5 -13.5t-12.5 -11.5q-8 0 -15 -7t-13 -17q-6 -14 -6 -28v-508q0 -16 26 -30t26 -25q0 -8 -8 -19q-9 -6 -26 -8t-20 -2q-8 0 -15.5 0.5t-14.5 0.5h-225q-20 0 -25 23q-1 10 3 16t15 13q16 4 23.5 8t7.5 13v546q-2 13 -25 25t-23 24
q0 7 6.5 16.5t16.5 13t25 3.5h253q8 0 15 -6t13 -17z" />
    <glyph glyph-name="J" unicode="J" horiz-adv-x="567" 
d="M540 679q4 -6 1 -13t-7 -10t-24 -10.5t-20 -20.5v-473q0 -46 -34.5 -84.5t-72.5 -50.5t-64.5 -16.5t-56.5 -4.5q-8 0 -16.5 1t-13.5 1q-4 11 -4 26q0 13 3 27q14 10 22.5 22.5t8.5 26.5v524q0 17 -30 25t-30 23q0 2 3 13t21 13t37 2l255 -1q6 0 11.5 -5.5t10.5 -14.5z
M209 127q-6 -12 -21 -25t-33 -28q2 -7 18 -14.5t16 -16.5q0 -6 -2 -10q1 -12 1 -17q0 -13 -6 -15q-51 6 -93.5 32.5t-58 62.5t-15.5 67t14 52q9 20 28.5 34t35 18.5t25.5 4.5q27 0 48 -9.5t37.5 -32t16.5 -58.5q0 -25 -11 -45z" />
    <glyph glyph-name="K" unicode="K" horiz-adv-x="738" 
d="M722 11q-4 -1 -8 -4.5t-7 -6.5h-285q-8 0 -16 7t-8 16q-3 6 -3 11q0 9 9 17q18 8 27 27q-23 73 -44.5 137t-34.5 104q-2 10 -2 16q0 25 27.5 61t33.5 48t47.5 66.5t41.5 96.5q0 9 -1.5 19.5t-31 21t-29.5 21.5q0 7 9 21l14 10h210l12 -2q7 -4 7 -18q0 -27 -36 -41.5
t-43 -22.5q-27 -21 -48 -48.5t-41 -60.5q-1 -4 0 -9t3 -11q20 -50 49.5 -127t62.5 -162t42 -106t29.5 -36t20.5 -27q0 -8 -7 -18zM361 682q4 -24 -13 -30.5t-25 -13t-8 -18.5v-411v-131q3 -9 19.5 -22t16.5 -25q0 -7 -5.5 -15t-18.5 -12t-35 -4h-25h-216q-6 0 -11 8t-5 15
q-3 20 21 31.5t24 23.5v546q0 13 -24.5 24t-24.5 23q0 2 4 12q6 9 17 13t38 4h248q7 0 13 -5t10 -13z" />
    <glyph glyph-name="L" unicode="L" horiz-adv-x="567" 
d="M366 678q2 -7 -2.5 -15t-6.5 -12q-19 -6 -32.5 -9.5t-13.5 -16.5v-620l-6 -5h-243q-8 0 -17.5 6t-12.5 14q0 21 6.5 27.5t24 13t17.5 17.5v532q0 13 -26.5 30.5t-26.5 30.5q0 5 3 13q5 7 12.5 10.5t17.5 5.5h275q10 0 19.5 -6t11.5 -16zM552 4l-4 -4l-188 -2q-8 0 -8 14
q0 9 2.5 25.5t2.5 17.5q32 8 57 24.5t43 44.5q17 20 26 43.5t20 60.5q5 8 18 14q14 3 20 3q11 0 11 -17v-224z" />
    <glyph glyph-name="M" unicode="M" horiz-adv-x="789" 
d="M763 678q2 -18 -24.5 -31t-26.5 -26v-529q0 -16 28.5 -34.5t28.5 -30.5q0 -9 -7 -19t-18 -10l-281 2q-18 0 -24 19q-2 15 23.5 32.5t25.5 26.5v611q0 6 7 8.5t18 2.5h12h214q7 0 15 -7t9 -15zM452 566q0 -16 1 -53t1 -55q0 -20 -1 -37t-13.5 -61.5t-36.5 -124.5t-73 -231
q-6 -6 -15 -6q-7 0 -25 47t-55 156.5t-74 221t-56 164t-52.5 64.5t-28.5 38q2 11 13 11h265q4 0 5.5 -5t8.5 -25t38.5 -116.5t34.5 -105.5q7 -9 14 -6q4 2 5.5 8t3.5 12l35 109zM230 16q-9 -16 -33 -16h-154q-4 0 -9 6t-5 13q-3 22 20.5 36.5t28.5 23.5q15 15 21.5 34.5
t6.5 42.5v310q1 -1 3.5 -6t5.5 -7l43 -143q0 -17 -0.5 -34.5t-0.5 -35.5q0 -79 7.5 -112t16.5 -44.5t31 -27t22 -27.5q0 -6 -4 -13z" />
    <glyph glyph-name="N" unicode="N" horiz-adv-x="691" 
d="M671 674q0 -23 -29.5 -39t-33 -26.5t-6.5 -22t-4 -15.5l-1 -265l-3 -3q-19 23 -38.5 49t-19.5 49v164q0 28 -18.5 49t-49.5 39q-4 5 -0.5 19t3.5 17q4 6 11 8.5t25 2.5h90t54.5 -1.5t10.5 -6.5t9 -18zM599 5q0 -7 -9 -7h-129q-2 2 -9 4q-60 103 -143 246.5t-118.5 205.5
t-69.5 121t-59.5 70t-25.5 25q0 2 1.5 10.5t10 14t17.5 5.5h256q57 -93 96 -158t92 -157t90 -157v-223zM236 33q3 -7 1.5 -13.5t-6.5 -14.5l-14 -7h-159q-15 4 -21.5 8.5t-6.5 16.5q2 16 30.5 37t32.5 37q10 27 12.5 57t2.5 74v292q8 -1 16 -1q37 -36 37 -90l1 -287
q0 -29 14 -55t40 -35q7 -5 13 -9.5t7 -9.5z" />
    <glyph glyph-name="O" unicode="O" horiz-adv-x="666" 
d="M312 36v-26q0 -14 -9 -14q-73 0 -140 49.5t-90 102.5t-29.5 86t-11.5 85q0 65 2 94.5t12 62.5q15 71 63 132.5t92.5 76t61 19t31.5 4.5q9 0 14 -1l2 2q1 -2 0 -8t1 -17.5t2 -15.5q0 -6 -3 -12q-11 -7 -23 -14.5t-16 -20.5q-5 -25 -5 -53l1 -480q0 -8 8.5 -19.5
t18.5 -18.5q18 -5 18 -14zM637 316q-5 -50 -11.5 -84t-29.5 -86.5t-90 -103t-140 -50.5q-9 1 -9 15v26q0 5 5.5 8.5t12.5 5.5q10 7 18 18t8 20v480v13q0 23 -3 37t-18 24l-21 14q-3 6 -3 13q0 3 2 14t0.5 17.5t-0.5 8.5q1 -1 3 -2q5 1 15 1q17 0 34.5 -5.5t59 -19t90 -74.5
t63.5 -133q9 -28 11.5 -66t2.5 -91z" />
    <glyph glyph-name="P" unicode="P" horiz-adv-x="655" 
d="M616 592q26 -52 26 -114q0 -75 -38 -126q-42 -52 -101 -68t-145 -16q-4 11 -4 27v12q2 8 2 12q22 8 39 14.5t17 23.5v230q0 29 -27 43q-12 5 -20.5 8t-8.5 13v19q0 21 7 28q81 0 154 -27.5t99 -78.5zM372 14q-9 -14 -32 -14h-284q-22 0 -22 22q-3 9 -3 14q0 13 24.5 25.5
t24.5 32.5v528q0 8 -23.5 24.5t-23.5 27.5q0 6 3.5 12t10 8.5t15.5 5.5h249l6 -9v-610q0 -17 28.5 -27.5t28.5 -26.5q0 -8 -2 -13z" />
    <glyph glyph-name="Q" unicode="Q" horiz-adv-x="647" 
d="M310 660q-19 -10 -33.5 -21t-14.5 -23v-521q3 -13 11.5 -25t33.5 -28q2 -8 2 -24t-2 -24q-6 0 -9 -1q-71 0 -136.5 44.5t-100 122t-34.5 188.5q0 81 22 152t79.5 133.5t153.5 73.5q8 -1 17 -2q11 -3 11 -10q1 -17 1 -25q0 -7 -1 -10zM635 32q0 -20 -18 -33
q-17 -10 -33 -20q-29 -13 -61 -13q-28 0 -52 8t-43 26q-11 0 -33 -4t-34 -4q-7 1 -10 1q-6 5 -6 20q2 19 2 28q2 3 12 7t13 10q0 8 -6.5 15t-14.5 12.5t-25.5 9.5t-22.5 17q0 21 11 26q6 6 13 8.5t18 2.5q7 0 21 -2t20 -2l8 10v457q0 11 -6.5 21t-17.5 18q-16 4 -17.5 13.5
t-1.5 18.5q0 12 3 21l5 3q77 0 125.5 -28t85.5 -93.5t49 -117.5t12 -109q0 -69 -19 -136.5t-54 -115.5q-2 -5 -19 -21t-13 -28q10 -10 22 -14t27 -4q7 0 18 2t18 4q14 5 24 -14z" />
    <glyph glyph-name="R" unicode="R" horiz-adv-x="688" 
d="M681 11q-2 -11 -10 -11h-231l-2 117l-3 60q-7 59 -34 128q-9 16 -21.5 23t-32.5 12q-6 7 -6 20t1 27q7 5 26 10t28.5 18.5t14 35t4.5 49.5q0 11 -1 34t-1 36q0 48 -43 69q-15 2 -21.5 3.5t-9.5 6.5q-1 14 -1 21q0 22 9 30q106 0 196 -34.5t90 -127.5q0 -78 -43.5 -114
t-100.5 -52l-2 -10q46 -9 69.5 -46t39.5 -99q3 -20 7.5 -56.5t11 -59t22 -32.5t34.5 -10q11 -6 11 -26q-1 -16 -1 -22zM299 2l-4 -2h-244q-7 0 -13 10.5t-7 13.5q0 19 22.5 30t26.5 23v539q0 15 -27.5 27.5t-27.5 26.5q0 7 2 11q11 11 23.5 14t39.5 5h203l6 -5v-693z" />
    <glyph glyph-name="S" unicode="S" horiz-adv-x="565" 
d="M496 509q0 -22 -21 -35q-17 -2 -28 8q-21 59 -43 95.5t-63 63.5q-20 9 -31 14t-15 12q0 11 0.5 22t6.5 19q52 0 82 -13t36 -13q11 0 29.5 12.5t25.5 12.5q11 0 20 -17v-89.5t1 -91.5zM522 282q2 -7 3.5 -23.5t1.5 -32.5q0 -49 -17.5 -92t-52.5 -74t-81 -44.5t-96 -13.5
q-4 9 -4 22v14.5t1 15.5q23 5 34.5 10t29 20t17.5 44q0 8 -3 19q-3 22 -21 38t-49 34q-132 60 -181.5 91.5t-59.5 85t-10 83.5q0 110 68 181q66 48 153 48q4 4 5 4v-10v-19q0 -21 -5 -28t-18 -8q-17 -9 -28 -26.5t-11 -38.5q0 -37 19.5 -52t104.5 -50.5t137 -87t63 -110.5z
M238 5q-5 -4 -9 -7q-25 2 -65.5 15t-57.5 15q-8 0 -23.5 -14.5t-22.5 -14.5q-6 0 -17 7t-11 27q0 48 1 98.5t2 101.5q0 8 6.5 15.5t15.5 10.5q28 -4 38 -30q10 -37 22 -68t44 -62t71 -41q6 -8 6 -24v-18v-11z" />
    <glyph glyph-name="T" unicode="T" horiz-adv-x="631" 
d="M161 691q0 -5 1 -15t1 -15q0 -15 -4.5 -23.5t-20.5 -13.5q-23 -27 -32.5 -55.5t-21.5 -88.5q-5 -6 -9 -10t-9.5 -6t-11.5 -2q-12 0 -18 9q-10 6 -12 15.5t-2 27.5v177q0 6 2.5 7t18.5 1h114q2 0 4 -8zM609 487q0 -19 -22 -27q-8 -3 -13.5 -1.5t-14 8t-18 45t-21 69
t-43.5 56.5q-4 6 -5 15t-1 22v14t1 11h131q2 0 6 -10v-202zM486 20q-7 -13 -20 -16.5t-32 -3.5h-275q-8 0 -13 6t-11 17q-2 22 28.5 38.5t30.5 45.5v586q6 6 8 6h29h26h24h21h18h16h13h11h28.5t33.5 1q7 0 7 -12l1 -606q0 -16 28.5 -26t28.5 -26q0 -6 -1 -10z" />
    <glyph glyph-name="U" unicode="U" horiz-adv-x="679" 
d="M664 679q0 -23 -37.5 -45.5t-37.5 -43.5v-144v-195q0 -83 -11 -116t-37.5 -65.5t-58.5 -48t-71 -20.5l-4 1q-1 10 -1.5 18t-0.5 14q0 16 4 27q40 6 78 42t38 78l1 381q-2 27 -14.5 49.5t-37.5 35.5q-17 2 -25 20q-5 14 7 24q2 4 18 9h69.5t68.5 1q28 0 37.5 -3t14.5 -19z
M365 51q1 -22 1 -33q0 -17 -10 -22q-54 0 -98 7t-90.5 34t-67 74.5t-20.5 116.5v398q0 12 -24 24.5t-24 21.5q0 6 3.5 13.5t10.5 11t17 3.5h285q5 0 9 -7t5 -14q6 -13 -1 -20t-27.5 -14.5t-20.5 -18.5v-530q0 -20 24.5 -29t27.5 -16z" />
    <glyph glyph-name="V" unicode="V" horiz-adv-x="604" 
d="M597 648q-28 -6 -50.5 -34t-36 -81t-35.5 -133t-45 -145q-8 17 -11 29t-13 68q8 36 32 124t28 107q0 19 -3 29t-15 18q-4 7 -24 17t-20 24l2 12q3 3 10 9t15 8h166q12 0 12 -26q0 -24 -12 -26zM412 173l-50 -168q0 -3 -6 -5h-106q-18 0 -34 51.5t-56.5 184.5t-62.5 207.5
t-51 175.5q-1 14 -23 28t-22 22q0 6 6.5 15t24.5 12.5t41 3.5h25h212q6 0 12 -5.5t11 -16.5q3 -17 -18 -33t-21 -31q20 -82 66.5 -251.5t51.5 -189.5z" />
    <glyph glyph-name="W" unicode="W" horiz-adv-x="828" 
d="M829 680q3 -17 -19 -27t-30 -19q-18 -16 -27 -36.5t-27.5 -96t-46.5 -190.5q-2 8 -16 48.5t-14 59.5q0 20 8 36q3 11 17.5 60t14.5 83q1 4 1 10q0 18 -27.5 37.5t-27.5 29.5q0 11 18 25h94h40.5t22.5 -2q14 -4 19 -18zM657 238q-29 -125 -56 -231q-6 -4 -12 -7h-97
q-3 0 -5 3.5t-31.5 115.5t-86.5 333q12 55 28.5 114.5t25.5 92.5t14 37t18 4h11h68q30 -113 49.5 -184t41.5 -154t32 -124zM382 252q-11 -55 -28.5 -119.5t-26 -97t-12 -34t-4.5 -1.5h-89q-14 0 -26 51t-42.5 166t-48.5 181.5t-62 220.5q0 15 -22 29t-22 26q0 6 3 14
q12 8 16.5 10t10.5 2h281q5 0 9.5 -7t6.5 -11q-1 -11 -21.5 -32t-20.5 -34q0 -10 5 -19q18 -63 48.5 -176.5t44.5 -168.5z" />
    <glyph glyph-name="X" unicode="X" horiz-adv-x="676" 
d="M617 683q0 -24 -30 -40t-44 -32.5t-43 -58t-54 -77.5q-6 2 -11 4q-11 38 -14 49q3 8 20 35t17 44q0 9 -5 21q-5 8 -27.5 19.5t-22.5 25.5q0 6 2 14t8 10.5t25 2.5h10h152q4 0 8.5 -6t8.5 -11zM639 19q-3 -7 -9 -14t-12 -7h-295q-6 0 -13 7t-11 15q-3 15 15 34.5t18 29.5
q0 9 -7 19l-264 532q-17 14 -28.5 23t-6.5 25q6 11 24 13.5t27 3.5h262q7 0 11.5 -5t6.5 -12q5 -15 -12.5 -30.5t-13.5 -28.5q43 -91 98 -205t77.5 -160.5t59 -119.5t56 -85.5t19.5 -24.5q0 -2 -2 -10zM239 37q0 -12 -4.5 -24.5t-13.5 -12.5l-164 -2q-8 0 -16 7t-11 15
q-5 21 20.5 35t43.5 35t50 67.5t63 90.5q15 -5 24 -9t9 -16q0 -7 -5 -19t-27.5 -45.5t-22.5 -53.5q0 -17 7 -28.5t25 -19t22 -20.5z" />
    <glyph glyph-name="Y" unicode="Y" horiz-adv-x="626" 
d="M630 684q0 -24 -30.5 -37.5t-37.5 -26.5q-7 -5 -13 -16.5t-9.5 -18t-35 -81t-56.5 -129.5h-4q-11 24 -18 39.5t-7 32.5q1 5 1 8q4 11 29.5 61t25.5 79q0 19 -7 36q-5 7 -29.5 18t-24.5 23q0 6 4.5 14t23.5 11.5t48 3.5q11 0 21.5 -0.5t21.5 -0.5h21.5t23.5 1
q24 0 38 -3.5t14 -13.5zM481 11q-14 -12 -49 -12q-11 0 -23 0.5t-25 0.5h-221q-9 0 -17.5 5.5t-14.5 14.5q-4 10 0 19t14 13q34 3 45 36v25v22v19v16v15v13q0 19 -0.5 38t-0.5 39v12q-32 73 -67.5 155.5t-58.5 141.5q-14 28 -23.5 48t-31.5 25q-18 10 -9 27q2 6 8.5 9.5
t14.5 6.5h299q4 0 9.5 -5.5t5.5 -10.5q5 -24 -12.5 -30.5t-21.5 -22.5q0 -11 5 -23t50 -118t65 -158q3 -28 4 -70.5t1 -46.5q0 -21 -1 -65t-1 -68q3 -15 36 -29.5t33 -23.5q0 -6 -13 -18z" />
    <glyph glyph-name="Z" unicode="Z" horiz-adv-x="574" 
d="M268 694q-7 -20 -12.5 -30.5t-15.5 -19.5q-45 0 -83.5 -37.5t-53.5 -85.5q0 -10 -5.5 -18t-16.5 -10q-7 0 -19.5 10.5t-14.5 12.5q0 45 -1 90.5t-2 90.5q5 1 11 3h206q2 0 4 -1q2 -4 3 -5zM539 639q-33 -73 -86.5 -195t-100 -228.5t-71 -160t-27.5 -54.5t-4 -2l-216 1
q-9 0 -9 15q0 8 2.5 24t2.5 18q46 105 92 211t99.5 228.5t85.5 195.5q5 8 17 8h12h126h50t24 -2q4 -5 3 -7q-1 -4 -1 -12q0 -20 1 -40zM547 2q-4 -1 -6 -3h-235l-7 3q9 23 15.5 38t19.5 20q40 0 76 25.5t50 47.5t25 54.5t32 32.5q6 0 10 -1q1 -2 10.5 -5t9.5 -13v-199z" />
    <glyph glyph-name="bracketleft" unicode="[" horiz-adv-x="328" 
d="M308 -106h-245v820h245v-54h-105v-711h105v-55z" />
    <glyph glyph-name="backslash" unicode="\" horiz-adv-x="327" 
d="M297 14l-5 -5q-12 -3 -19 -3q-6 0 -11 5q-31 83 -72 203.5t-80 238t-71 208.5q-2 12 -3 25q11 1 22 3q6 0 11 -3q44 -123 86 -245.5t73.5 -218.5t68.5 -208z" />
    <glyph glyph-name="bracketright" unicode="]" horiz-adv-x="328" 
d="M265 -106h-245v55h104v711h-104v54h245v-820z" />
    <glyph glyph-name="asciicircum" unicode="^" horiz-adv-x="487" 
d="M402 388h-127l-32 109l-32 -109h-126l100 206h117z" />
    <glyph glyph-name="underscore" unicode="_" horiz-adv-x="468" 
d="M468 -202h-468v72h468v-72z" />
    <glyph glyph-name="grave" unicode="`" horiz-adv-x="341" 
d="M275 743h-107l-95 146h154z" />
    <glyph glyph-name="a" unicode="a" horiz-adv-x="642" 
d="M642 18q-7 -9 -18 -13.5t-24 -4.5h-258q-6 0 -10.5 7t-7.5 17q0 14 21 32t21 32q0 4 -2.5 12.5t-7.5 34.5t-10.5 32t-9.5 7h-127q-6 0 -6 7q1 8 1 10q4 6 8 23.5t12 23.5h94q7 7 7 17q0 6 -3 17t-3 16q-20 75 -43.5 171.5t-44.5 186.5q1 16 3 33q5 21 20 21h183
q6 0 27.5 -88t31 -124t46 -174t64.5 -240q4 -7 22 -20t18 -23q0 -6 -4 -13zM233 460q-49 -196 -59.5 -238.5t-23.5 -106.5q-5 -42 32 -56q11 -8 18.5 -13t9.5 -13q4 -11 -1.5 -22t-13.5 -11h-168q-5 2 -12.5 7.5t-9.5 15.5q0 14 21.5 24.5t31 18.5t19.5 24.5t42.5 137
t89.5 336.5q2 -2 4 -9z" />
    <glyph glyph-name="b" unicode="b" horiz-adv-x="674" 
d="M650 186q0 -50 -21.5 -91t-61.5 -62t-89.5 -27t-114.5 -6q-10 0 -11 6q-1 13 -1 20q0 22 12 28q25 0 37 15.5t18 23.5t6 15v50q0 55 -3 86t-15 61q-9 16 -21.5 23t-32.5 12q-7 7 -7 19l2 28q6 4 25 9.5t27 16.5t11.5 31t3.5 49q0 12 -1 38.5t-1 38.5q0 23 -9 42.5
t-20 24.5t-23.5 7t-15.5 7q-2 14 -2 23q0 17 10 26q140 0 213 -48.5t73 -121.5t-44 -107.5t-101 -50.5q-1 -5 -1 -10q61 -12 109.5 -58t48.5 -118zM305 6q-2 -6 -5 -6h-244q-7 0 -13 10.5t-7 13.5q0 19 20.5 28.5t23.5 21.5v544q0 15 -25 27t-25 26q0 8 2 12q13 13 30 15
t33 2h203l7 -5v-689z" />
    <glyph glyph-name="c" unicode="c" horiz-adv-x="597" 
d="M555 466q0 -11 -4.5 -19t-15.5 -10q-11 -4 -25 6q-16 45 -27.5 76.5t-32 60t-42.5 48.5t-51 24q-7 7 -7 18q2 14 2 21q0 3 -2 11q6 5 16 5q6 0 17.5 -2.5t16.5 -2.5q38 -14 77 -27q21 0 33 23q3 2 15.5 20t18.5 18q10 0 10 -36zM319 0q-9 -3 -19 -3t-27 2.5t-21 2.5
q-67 10 -124 64t-83 124q-23 78 -23 162q0 88 26.5 161.5t84.5 127.5q37 31 73 49t75 18h12q9 -2 13 -2l2 2q2 -1 2 -6q1 -6 1 -20v-16q-3 -8 -4 -11q-19 -9 -35 -27t-16 -46v-116v-356q0 -18 16 -30t47 -27q2 -8 2 -25q0 -19 -2 -28zM555 200q7 -11 7 -23q0 -11 -7.5 -32
t-21 -48t-63 -62t-103.5 -35q-2 14 -3.5 24t-1.5 12q0 18 9 24q45 7 84 38t47 57.5t11.5 37.5t12.5 14q9 5 14 5q6 0 15 -12z" />
    <glyph glyph-name="d" unicode="d" horiz-adv-x="670" 
d="M594 133q-39 -62 -101 -97.5t-133 -35.5q-7 0 -7 12q0 5 2 17t2 17q19 12 32 20t18 22q6 8 6 22l1 452q0 23 -9 43t-31 30q-10 3 -16.5 5t-9.5 8q-1 22 -1 32q0 17 10 20q84 0 128 -19t87.5 -84t59.5 -126t16 -127q0 -60 -13 -114t-41 -97zM311 14q-1 0 -4.5 -7.5
t-5.5 -8.5q-41 0 -124.5 1t-121.5 1q-13 0 -20 16q-2 8 -2 10q0 11 9 20q17 8 27.5 14t10.5 18v538q0 16 -28 28t-28 25q0 6 4 15.5t15 15.5h263l5 -5v-681z" />
    <glyph glyph-name="e" unicode="e" horiz-adv-x="604" 
d="M562 696l-1 -198q-7 -13 -25 -13q-5 0 -13 2q-6 7 -27.5 49.5t-37.5 55.5q-18 18 -40 27t-59 18q-6 4 -6 6q1 3 1 10q-2 19 -2 28q0 17 13 19h193zM472 228q0 -14 -13 -14q-5 0 -18 5q-12 11 -25.5 43t-19.5 39q-19 12 -28 17.5t-13 13.5v25t3 27q21 6 32 21t38 78
q10 19 17.5 27t13.5 8q12 0 12 -43zM317 4q-4 -2 -5 -3t-2 -1h-248q-9 0 -16 3.5t-11 12.5q-4 17 2.5 24.5t24.5 16.5t18 18v536q0 17 -26.5 30t-26.5 26q0 5 3 13q9 9 24 14.5t45 5.5h218v-696zM573 6q0 -3 -3.5 -4t-5.5 -2h-199q-9 0 -9 18q0 9 1.5 16.5t4.5 21.5
q52 5 94.5 40t57.5 84q4 10 9 21t17 13q3 0 11 3t12 3q10 0 10 -24v-190z" />
    <glyph glyph-name="f" unicode="f" horiz-adv-x="581" 
d="M560 699v-31t1 -59v-14v-12q0 -47 -2.5 -70.5t-17.5 -25.5q-19 -4 -29 11q-13 27 -29 58.5t-50 52t-79 30.5q-2 11 -2.5 18.5t-0.5 17.5q0 17 6 24h203zM472 233q0 -6 -7.5 -11.5t-10.5 -7.5q-20 -2 -29 18.5t-19.5 45.5t-48.5 46q-7 13 -7 35q0 12 2 18.5t2 9.5
q29 9 42.5 31t30.5 66q7 9 16 19.5t15 10.5t9.5 -9.5t3.5 -33.5zM364 9q-3 -2 -9 -5.5t-9 -3.5h-287q-9 0 -15 4.5t-11 14.5q-3 5 -0.5 11.5t5.5 13.5q19 9 30.5 15t11.5 19v541q0 13 -25.5 27.5t-25.5 25.5q0 5 5 13t16 11.5t27 3.5q17 -1 25 -1h203q2 0 3 -3.5t2 -4.5
v-613q0 -16 30 -27t30 -24q0 -7 -6 -18z" />
    <glyph glyph-name="g" unicode="g" horiz-adv-x="639" 
d="M575 457q-1 -4 -7 -9t-13 -9q-11 -3 -18 3t-25.5 52.5t-45.5 91.5t-82 61q-5 4 -22 4.5t-21 5.5v44q9 6 21 6q9 0 25 -3.5t20 -3.5q9 -3 37.5 -14t37 -13.5t10.5 -2.5q11 0 28 14t26 14q8 0 17.5 -8.5t9.5 -12.5q0 -36 2.5 -93t2.5 -67q0 -30 -3 -60zM306 0q-4 -2 -14 -2
q-7 0 -19 2t-17 2q-76 14 -136 81t-76 145q-7 24 -10 48.5t-3 52.5q0 24 3 47q0 97 40 178.5t121 123.5q41 15 59.5 20t30.5 4t12.5 1.5t2.5 6.5q1 -8 1 -15v-21q0 -18 -4.5 -28.5t-21.5 -16.5q-9 -14 -11.5 -33t-2.5 -46v-17l1 -420q0 -18 7 -33t22.5 -22t15.5 -29
q-1 -15 -1 -29zM612 347q2 -6 2 -11q0 -6 -2 -14t-4 -12q-9 -7 -17.5 -14t-8.5 -17v-184q-32 -34 -72.5 -54t-100.5 -38q-8 0 -23 -2.5t-19 -2.5q-5 0 -15 2q-4 10 -7 20t-3 14q0 9 14.5 18t21.5 36t7 70q0 15 -0.5 29.5t-0.5 28.5q0 42 -2.5 60.5t-15 23t-19.5 8.5t-13 12
q-3 14 3.5 21t14.5 11q27 3 57 3q16 0 48 -1t47 -1h28.5t29.5 1q25 0 37 -1.5t13 -5.5z" />
    <glyph glyph-name="h" unicode="h" horiz-adv-x="738" 
d="M711 674q2 -10 -3.5 -19.5t-20 -14t-20.5 -26t-6 -51.5v-19v-462q0 -17 26 -29t26 -24q0 -7 -4.5 -16t-26.5 -12t-53 -3q-34 0 -105 1t-106 1q-16 4 -22 20q0 11 1 16.5t9.5 12t15.5 13.5t7 16v233q0 6 -14 13l-64 -1q-2 7 -2 24q1 23 1 33q11 3 38 4.5t28 1.5q11 0 11 7
v218q0 15 -20 31t-20 25q0 8 9.5 17t26 12.5t37.5 3.5h28h191q25 0 32 -26zM350 675q6 -14 -9 -27q-9 -5 -18.5 -11.5t-9.5 -15.5v-543q0 -10 18.5 -26.5t18.5 -27.5q0 -9 -9.5 -17.5t-13.5 -8.5h-273q-9 0 -15 4.5t-11 13.5q-4 20 23 35.5t29 30.5v539q0 15 -25 25t-25 23
q0 5 3 14q8 11 24 14q15 1 31 3h140h58t32 -2q22 -4 32 -23z" />
    <glyph glyph-name="i" unicode="i" horiz-adv-x="390" 
d="M361 677q3 -5 3 -10q0 -7 -4.5 -13.5t-12.5 -11.5q-8 0 -15 -7t-13 -17q-6 -14 -6 -28v-508q0 -16 26 -30t26 -25q0 -8 -8 -19q-9 -6 -26 -8t-20 -2q-8 0 -15.5 0.5t-14.5 0.5h-225q-20 0 -25 23q-1 10 3 16t15 13q16 4 23.5 8t7.5 13v546q-2 13 -25 25t-23 24
q0 7 6.5 16.5t16.5 13t25 3.5h253q8 0 15 -6t13 -17z" />
    <glyph glyph-name="j" unicode="j" horiz-adv-x="567" 
d="M540 679q4 -6 1 -13t-7 -10t-24 -10.5t-20 -20.5v-473q0 -46 -34.5 -84.5t-72.5 -50.5t-64.5 -16.5t-56.5 -4.5q-8 0 -16.5 1t-13.5 1q-4 11 -4 26q0 13 3 27q14 10 22.5 22.5t8.5 26.5v524q0 17 -30 25t-30 23q0 2 3 13t21 13t37 2l255 -1q6 0 11.5 -5.5t10.5 -14.5z
M209 127q-6 -12 -21 -25t-33 -28q2 -7 18 -14.5t16 -16.5q0 -6 -2 -10q1 -12 1 -17q0 -13 -6 -15q-51 6 -93.5 32.5t-58 62.5t-15.5 67t14 52q9 20 28.5 34t35 18.5t25.5 4.5q27 0 48 -9.5t37.5 -32t16.5 -58.5q0 -25 -11 -45z" />
    <glyph glyph-name="k" unicode="k" horiz-adv-x="738" 
d="M722 11q-4 -1 -8 -4.5t-7 -6.5h-285q-8 0 -16 7t-8 16q-3 6 -3 11q0 9 9 17q18 8 27 27q-23 73 -44.5 137t-34.5 104q-2 10 -2 16q0 25 27.5 61t33.5 48t47.5 66.5t41.5 96.5q0 9 -1.5 19.5t-31 21t-29.5 21.5q0 7 9 21l14 10h210l12 -2q7 -4 7 -18q0 -27 -36 -41.5
t-43 -22.5q-27 -21 -48 -48.5t-41 -60.5q-1 -4 0 -9t3 -11q20 -50 49.5 -127t62.5 -162t42 -106t29.5 -36t20.5 -27q0 -8 -7 -18zM361 682q4 -24 -13 -30.5t-25 -13t-8 -18.5v-411v-131q3 -9 19.5 -22t16.5 -25q0 -7 -5.5 -15t-18.5 -12t-35 -4h-25h-216q-6 0 -11 8t-5 15
q-3 20 21 31.5t24 23.5v546q0 13 -24.5 24t-24.5 23q0 2 4 12q6 9 17 13t38 4h248q7 0 13 -5t10 -13z" />
    <glyph glyph-name="l" unicode="l" horiz-adv-x="567" 
d="M366 678q2 -7 -2.5 -15t-6.5 -12q-19 -6 -32.5 -9.5t-13.5 -16.5v-620l-6 -5h-243q-8 0 -17.5 6t-12.5 14q0 21 6.5 27.5t24 13t17.5 17.5v532q0 13 -26.5 30.5t-26.5 30.5q0 5 3 13q5 7 12.5 10.5t17.5 5.5h275q10 0 19.5 -6t11.5 -16zM552 4l-4 -4l-188 -2q-8 0 -8 14
q0 9 2.5 25.5t2.5 17.5q32 8 57 24.5t43 44.5q17 20 26 43.5t20 60.5q5 8 18 14q14 3 20 3q11 0 11 -17v-224z" />
    <glyph glyph-name="m" unicode="m" horiz-adv-x="789" 
d="M763 678q2 -18 -24.5 -31t-26.5 -26v-529q0 -16 28.5 -34.5t28.5 -30.5q0 -9 -7 -19t-18 -10l-281 2q-18 0 -24 19q-2 15 23.5 32.5t25.5 26.5v611q0 6 7 8.5t18 2.5h12h214q7 0 15 -7t9 -15zM452 566q0 -16 1 -53t1 -55q0 -20 -1 -37t-13.5 -61.5t-36.5 -124.5t-73 -231
q-6 -6 -15 -6q-7 0 -25 47t-55 156.5t-74 221t-56 164t-52.5 64.5t-28.5 38q2 11 13 11h265q4 0 5.5 -5t8.5 -25t38.5 -116.5t34.5 -105.5q7 -9 14 -6q4 2 5.5 8t3.5 12l35 109zM230 16q-9 -16 -33 -16h-154q-4 0 -9 6t-5 13q-3 22 20.5 36.5t28.5 23.5q15 15 21.5 34.5
t6.5 42.5v310q1 -1 3.5 -6t5.5 -7l43 -143q0 -17 -0.5 -34.5t-0.5 -35.5q0 -79 7.5 -112t16.5 -44.5t31 -27t22 -27.5q0 -6 -4 -13z" />
    <glyph glyph-name="n" unicode="n" horiz-adv-x="691" 
d="M671 674q0 -23 -29.5 -39t-33 -26.5t-6.5 -22t-4 -15.5l-1 -265l-3 -3q-19 23 -38.5 49t-19.5 49v164q0 28 -18.5 49t-49.5 39q-4 5 -0.5 19t3.5 17q4 6 11 8.5t25 2.5h90t54.5 -1.5t10.5 -6.5t9 -18zM599 5q0 -7 -9 -7h-129q-2 2 -9 4q-60 103 -143 246.5t-118.5 205.5
t-69.5 121t-59.5 70t-25.5 25q0 2 1.5 10.5t10 14t17.5 5.5h256q57 -93 96 -158t92 -157t90 -157v-223zM236 33q3 -7 1.5 -13.5t-6.5 -14.5l-14 -7h-159q-15 4 -21.5 8.5t-6.5 16.5q2 16 30.5 37t32.5 37q10 27 12.5 57t2.5 74v292q8 -1 16 -1q37 -36 37 -90l1 -287
q0 -29 14 -55t40 -35q7 -5 13 -9.5t7 -9.5z" />
    <glyph glyph-name="o" unicode="o" horiz-adv-x="666" 
d="M312 36v-26q0 -14 -9 -14q-73 0 -140 49.5t-90 102.5t-29.5 86t-11.5 85q0 65 2 94.5t12 62.5q15 71 63 132.5t92.5 76t61 19t31.5 4.5q9 0 14 -1l2 2q1 -2 0 -8t1 -17.5t2 -15.5q0 -6 -3 -12q-11 -7 -23 -14.5t-16 -20.5q-5 -25 -5 -53l1 -480q0 -8 8.5 -19.5
t18.5 -18.5q18 -5 18 -14zM637 316q-5 -50 -11.5 -84t-29.5 -86.5t-90 -103t-140 -50.5q-9 1 -9 15v26q0 5 5.5 8.5t12.5 5.5q10 7 18 18t8 20v480v13q0 23 -3 37t-18 24l-21 14q-3 6 -3 13q0 3 2 14t0.5 17.5t-0.5 8.5q1 -1 3 -2q5 1 15 1q17 0 34.5 -5.5t59 -19t90 -74.5
t63.5 -133q9 -28 11.5 -66t2.5 -91z" />
    <glyph glyph-name="p" unicode="p" horiz-adv-x="655" 
d="M616 592q26 -52 26 -114q0 -75 -38 -126q-42 -52 -101 -68t-145 -16q-4 11 -4 27v12q2 8 2 12q22 8 39 14.5t17 23.5v230q0 29 -27 43q-12 5 -20.5 8t-8.5 13v19q0 21 7 28q81 0 154 -27.5t99 -78.5zM372 14q-9 -14 -32 -14h-284q-22 0 -22 22q-3 9 -3 14q0 13 24.5 25.5
t24.5 32.5v528q0 8 -23.5 24.5t-23.5 27.5q0 6 3.5 12t10 8.5t15.5 5.5h249l6 -9v-610q0 -17 28.5 -27.5t28.5 -26.5q0 -8 -2 -13z" />
    <glyph glyph-name="q" unicode="q" horiz-adv-x="647" 
d="M310 660q-19 -10 -33.5 -21t-14.5 -23v-521q3 -13 11.5 -25t33.5 -28q2 -8 2 -24t-2 -24q-6 0 -9 -1q-71 0 -136.5 44.5t-100 122t-34.5 188.5q0 81 22 152t79.5 133.5t153.5 73.5q8 -1 17 -2q11 -3 11 -10q1 -17 1 -25q0 -7 -1 -10zM635 32q0 -20 -18 -33
q-17 -10 -33 -20q-29 -13 -61 -13q-28 0 -52 8t-43 26q-11 0 -33 -4t-34 -4q-7 1 -10 1q-6 5 -6 20q2 19 2 28q2 3 12 7t13 10q0 8 -6.5 15t-14.5 12.5t-25.5 9.5t-22.5 17q0 21 11 26q6 6 13 8.5t18 2.5q7 0 21 -2t20 -2l8 10v457q0 11 -6.5 21t-17.5 18q-16 4 -17.5 13.5
t-1.5 18.5q0 12 3 21l5 3q77 0 125.5 -28t85.5 -93.5t49 -117.5t12 -109q0 -69 -19 -136.5t-54 -115.5q-2 -5 -19 -21t-13 -28q10 -10 22 -14t27 -4q7 0 18 2t18 4q14 5 24 -14z" />
    <glyph glyph-name="r" unicode="r" horiz-adv-x="688" 
d="M681 11q-2 -11 -10 -11h-231l-2 117l-3 60q-7 59 -34 128q-9 16 -21.5 23t-32.5 12q-6 7 -6 20t1 27q7 5 26 10t28.5 18.5t14 35t4.5 49.5q0 11 -1 34t-1 36q0 48 -43 69q-15 2 -21.5 3.5t-9.5 6.5q-1 14 -1 21q0 22 9 30q106 0 196 -34.5t90 -127.5q0 -78 -43.5 -114
t-100.5 -52l-2 -10q46 -9 69.5 -46t39.5 -99q3 -20 7.5 -56.5t11 -59t22 -32.5t34.5 -10q11 -6 11 -26q-1 -16 -1 -22zM299 2l-4 -2h-244q-7 0 -13 10.5t-7 13.5q0 19 22.5 30t26.5 23v539q0 15 -27.5 27.5t-27.5 26.5q0 7 2 11q11 11 23.5 14t39.5 5h203l6 -5v-693z" />
    <glyph glyph-name="s" unicode="s" horiz-adv-x="565" 
d="M496 509q0 -22 -21 -35q-17 -2 -28 8q-21 59 -43 95.5t-63 63.5q-20 9 -31 14t-15 12q0 11 0.5 22t6.5 19q52 0 82 -13t36 -13q11 0 29.5 12.5t25.5 12.5q11 0 20 -17v-89.5t1 -91.5zM522 282q2 -7 3.5 -23.5t1.5 -32.5q0 -49 -17.5 -92t-52.5 -74t-81 -44.5t-96 -13.5
q-4 9 -4 22v14.5t1 15.5q23 5 34.5 10t29 20t17.5 44q0 8 -3 19q-3 22 -21 38t-49 34q-132 60 -181.5 91.5t-59.5 85t-10 83.5q0 110 68 181q66 48 153 48q4 4 5 4v-10v-19q0 -21 -5 -28t-18 -8q-17 -9 -28 -26.5t-11 -38.5q0 -37 19.5 -52t104.5 -50.5t137 -87t63 -110.5z
M238 5q-5 -4 -9 -7q-25 2 -65.5 15t-57.5 15q-8 0 -23.5 -14.5t-22.5 -14.5q-6 0 -17 7t-11 27q0 48 1 98.5t2 101.5q0 8 6.5 15.5t15.5 10.5q28 -4 38 -30q10 -37 22 -68t44 -62t71 -41q6 -8 6 -24v-18v-11z" />
    <glyph glyph-name="t" unicode="t" horiz-adv-x="631" 
d="M161 691q0 -5 1 -15t1 -15q0 -15 -4.5 -23.5t-20.5 -13.5q-23 -27 -32.5 -55.5t-21.5 -88.5q-5 -6 -9 -10t-9.5 -6t-11.5 -2q-12 0 -18 9q-10 6 -12 15.5t-2 27.5v177q0 6 2.5 7t18.5 1h114q2 0 4 -8zM609 487q0 -19 -22 -27q-8 -3 -13.5 -1.5t-14 8t-18 45t-21 69
t-43.5 56.5q-4 6 -5 15t-1 22v14t1 11h131q2 0 6 -10v-202zM486 20q-7 -13 -20 -16.5t-32 -3.5h-275q-8 0 -13 6t-11 17q-2 22 28.5 38.5t30.5 45.5v586q6 6 8 6h29h26h24h21h18h16h13h11h28.5t33.5 1q7 0 7 -12l1 -606q0 -16 28.5 -26t28.5 -26q0 -6 -1 -10z" />
    <glyph glyph-name="u" unicode="u" horiz-adv-x="679" 
d="M664 679q0 -23 -37.5 -45.5t-37.5 -43.5v-144v-195q0 -83 -11 -116t-37.5 -65.5t-58.5 -48t-71 -20.5l-4 1q-1 10 -1.5 18t-0.5 14q0 16 4 27q40 6 78 42t38 78l1 381q-2 27 -14.5 49.5t-37.5 35.5q-17 2 -25 20q-5 14 7 24q2 4 18 9h69.5t68.5 1q28 0 37.5 -3t14.5 -19z
M365 51q1 -22 1 -33q0 -17 -10 -22q-54 0 -98 7t-90.5 34t-67 74.5t-20.5 116.5v398q0 12 -24 24.5t-24 21.5q0 6 3.5 13.5t10.5 11t17 3.5h285q5 0 9 -7t5 -14q6 -13 -1 -20t-27.5 -14.5t-20.5 -18.5v-530q0 -20 24.5 -29t27.5 -16z" />
    <glyph glyph-name="v" unicode="v" horiz-adv-x="604" 
d="M597 648q-28 -6 -50.5 -34t-36 -81t-35.5 -133t-45 -145q-8 17 -11 29t-13 68q8 36 32 124t28 107q0 19 -3 29t-15 18q-4 7 -24 17t-20 24l2 12q3 3 10 9t15 8h166q12 0 12 -26q0 -24 -12 -26zM412 173l-50 -168q0 -3 -6 -5h-106q-18 0 -34 51.5t-56.5 184.5t-62.5 207.5
t-51 175.5q-1 14 -23 28t-22 22q0 6 6.5 15t24.5 12.5t41 3.5h25h212q6 0 12 -5.5t11 -16.5q3 -17 -18 -33t-21 -31q20 -82 66.5 -251.5t51.5 -189.5z" />
    <glyph glyph-name="w" unicode="w" horiz-adv-x="828" 
d="M829 680q3 -17 -19 -27t-30 -19q-18 -16 -27 -36.5t-27.5 -96t-46.5 -190.5q-2 8 -16 48.5t-14 59.5q0 20 8 36q3 11 17.5 60t14.5 83q1 4 1 10q0 18 -27.5 37.5t-27.5 29.5q0 11 18 25h94h40.5t22.5 -2q14 -4 19 -18zM657 238q-29 -125 -56 -231q-6 -4 -12 -7h-97
q-3 0 -5 3.5t-31.5 115.5t-86.5 333q12 55 28.5 114.5t25.5 92.5t14 37t18 4h11h68q30 -113 49.5 -184t41.5 -154t32 -124zM382 252q-11 -55 -28.5 -119.5t-26 -97t-12 -34t-4.5 -1.5h-89q-14 0 -26 51t-42.5 166t-48.5 181.5t-62 220.5q0 15 -22 29t-22 26q0 6 3 14
q12 8 16.5 10t10.5 2h281q5 0 9.5 -7t6.5 -11q-1 -11 -21.5 -32t-20.5 -34q0 -10 5 -19q18 -63 48.5 -176.5t44.5 -168.5z" />
    <glyph glyph-name="x" unicode="x" horiz-adv-x="676" 
d="M617 683q0 -24 -30 -40t-44 -32.5t-43 -58t-54 -77.5q-6 2 -11 4q-11 38 -14 49q3 8 20 35t17 44q0 9 -5 21q-5 8 -27.5 19.5t-22.5 25.5q0 6 2 14t8 10.5t25 2.5h10h152q4 0 8.5 -6t8.5 -11zM639 19q-3 -7 -9 -14t-12 -7h-295q-6 0 -13 7t-11 15q-3 15 15 34.5t18 29.5
q0 9 -7 19l-264 532q-17 14 -28.5 23t-6.5 25q6 11 24 13.5t27 3.5h262q7 0 11.5 -5t6.5 -12q5 -15 -12.5 -30.5t-13.5 -28.5q43 -91 98 -205t77.5 -160.5t59 -119.5t56 -85.5t19.5 -24.5q0 -2 -2 -10zM239 37q0 -12 -4.5 -24.5t-13.5 -12.5l-164 -2q-8 0 -16 7t-11 15
q-5 21 20.5 35t43.5 35t50 67.5t63 90.5q15 -5 24 -9t9 -16q0 -7 -5 -19t-27.5 -45.5t-22.5 -53.5q0 -17 7 -28.5t25 -19t22 -20.5z" />
    <glyph glyph-name="y" unicode="y" horiz-adv-x="626" 
d="M630 684q0 -24 -30.5 -37.5t-37.5 -26.5q-7 -5 -13 -16.5t-9.5 -18t-35 -81t-56.5 -129.5h-4q-11 24 -18 39.5t-7 32.5q1 5 1 8q4 11 29.5 61t25.5 79q0 19 -7 36q-5 7 -29.5 18t-24.5 23q0 6 4.5 14t23.5 11.5t48 3.5q11 0 21.5 -0.5t21.5 -0.5h21.5t23.5 1
q24 0 38 -3.5t14 -13.5zM481 11q-14 -12 -49 -12q-11 0 -23 0.5t-25 0.5h-221q-9 0 -17.5 5.5t-14.5 14.5q-4 10 0 19t14 13q34 3 45 36v25v22v19v16v15v13q0 19 -0.5 38t-0.5 39v12q-32 73 -67.5 155.5t-58.5 141.5q-14 28 -23.5 48t-31.5 25q-18 10 -9 27q2 6 8.5 9.5
t14.5 6.5h299q4 0 9.5 -5.5t5.5 -10.5q5 -24 -12.5 -30.5t-21.5 -22.5q0 -11 5 -23t50 -118t65 -158q3 -28 4 -70.5t1 -46.5q0 -21 -1 -65t-1 -68q3 -15 36 -29.5t33 -23.5q0 -6 -13 -18z" />
    <glyph glyph-name="z" unicode="z" horiz-adv-x="574" 
d="M268 694q-7 -20 -12.5 -30.5t-15.5 -19.5q-45 0 -83.5 -37.5t-53.5 -85.5q0 -10 -5.5 -18t-16.5 -10q-7 0 -19.5 10.5t-14.5 12.5q0 45 -1 90.5t-2 90.5q5 1 11 3h206q2 0 4 -1q2 -4 3 -5zM539 639q-33 -73 -86.5 -195t-100 -228.5t-71 -160t-27.5 -54.5t-4 -2l-216 1
q-9 0 -9 15q0 8 2.5 24t2.5 18q46 105 92 211t99.5 228.5t85.5 195.5q5 8 17 8h12h126h50t24 -2q4 -5 3 -7q-1 -4 -1 -12q0 -20 1 -40zM547 2q-4 -1 -6 -3h-235l-7 3q9 23 15.5 38t19.5 20q40 0 76 25.5t50 47.5t25 54.5t32 32.5q6 0 10 -1q1 -2 10.5 -5t9.5 -13v-199z" />
    <glyph glyph-name="braceleft" unicode="{" horiz-adv-x="328" 
d="M211 -102q-51 5 -73.5 33.5t-22.5 119.5v128q0 56 -12.5 84t-45.5 40q32 14 45 43t13 84v128q0 92 23 122.5t73 30.5q32 3 77 3h32q-46 -18 -61.5 -47t-15.5 -87v-125q0 -68 -12.5 -102.5t-49.5 -46.5q38 -14 50 -48t12 -104v-125q0 -59 15 -87t62 -45q-18 -2 -35 -2h-26
q-27 0 -48 3z" />
    <glyph glyph-name="bar" unicode="|" horiz-adv-x="468" 
d="M305 -145h-142v845h142v-845z" />
    <glyph glyph-name="braceright" unicode="}" horiz-adv-x="328" 
d="M212 178v-127q0 -91 -22 -120t-54 -32t-77 -4t-52 -1q46 19 61.5 47.5t15.5 86.5v125q0 70 12 103.5t51 45.5q-37 14 -50 49.5t-13 102.5v125q0 59 -15 87t-62 45q16 0 35 1t27 1q27 0 48 -3q50 0 72.5 -30t22.5 -123v-127q0 -57 12.5 -85t45.5 -40q-32 -14 -45 -43
t-13 -84z" />
    <glyph glyph-name="asciitilde" unicode="~" horiz-adv-x="505" 
d="M437 533q-8 -49 -39.5 -91.5t-75.5 -42.5q-6 0 -56.5 21t-78.5 21q-10 0 -18 -8.5t-12 -18.5h-87q7 47 42.5 88.5t78.5 41.5q20 0 68 -18.5t65 -18.5q9 0 14.5 7t12.5 19h86z" />
    <glyph glyph-name="Adieresis" unicode="&#xc4;" horiz-adv-x="642" 
d="M642 18q-7 -9 -18 -13.5t-24 -4.5h-258q-6 0 -10.5 7t-7.5 17q0 14 21 32t21 32q0 4 -2.5 12.5t-7.5 34.5t-10.5 32t-9.5 7h-127q-6 0 -6 7q1 8 1 10q4 6 8 23.5t12 23.5h94q7 7 7 17q0 6 -3 17t-3 16q-20 75 -43.5 171.5t-44.5 186.5q1 16 3 33q5 21 20 21h183
q6 0 27.5 -88t31 -124t46 -174t64.5 -240q4 -7 22 -20t18 -23q0 -6 -4 -13zM233 460q-49 -196 -59.5 -238.5t-23.5 -106.5q-5 -42 32 -56q11 -8 18.5 -13t9.5 -13q4 -11 -1.5 -22t-13.5 -11h-168q-5 2 -12.5 7.5t-9.5 15.5q0 14 21.5 24.5t31 18.5t19.5 24.5t42.5 137
t89.5 336.5q2 -2 4 -9zM529 827q0 -33 -23.5 -57.5t-57.5 -24.5q-36 0 -59 24t-23 58q0 33 23.5 57.5t58.5 24.5t58 -24t23 -58zM296 827q0 -33 -23.5 -57.5t-58.5 -24.5t-58 24t-23 58q0 33 23.5 57.5t57.5 24.5q36 0 59 -24t23 -58z" />
    <glyph glyph-name="Aring" unicode="&#xc5;" horiz-adv-x="642" 
d="M445 846q0 -44 -31 -76t-77 -32q-45 0 -77 32t-32 76q0 45 31.5 76.5t77.5 31.5q44 0 76 -32t32 -76zM370 846q0 15 -10 24t-24 9t-23.5 -9.5t-9.5 -23.5q0 -33 33 -33q13 0 23.5 9.5t10.5 23.5zM642 18q-7 -9 -18 -13.5t-24 -4.5h-258q-6 0 -10.5 7t-7.5 17q0 14 21 32
t21 32q0 4 -2.5 12.5t-7.5 34.5t-10.5 32t-9.5 7h-127q-6 0 -6 7q1 8 1 10q4 6 8 23.5t12 23.5h94q7 7 7 17q0 6 -3 17t-3 16q-20 75 -43.5 171.5t-44.5 186.5q1 16 3 33q5 21 20 21h183q6 0 27.5 -88t31 -124t46 -174t64.5 -240q4 -7 22 -20t18 -23q0 -6 -4 -13zM233 460
q-49 -196 -59.5 -238.5t-23.5 -106.5q-5 -42 32 -56q11 -8 18.5 -13t9.5 -13q4 -11 -1.5 -22t-13.5 -11h-168q-5 2 -12.5 7.5t-9.5 15.5q0 14 21.5 24.5t31 18.5t19.5 24.5t42.5 137t89.5 336.5q2 -2 4 -9z" />
    <glyph glyph-name="Ccedilla" unicode="&#xc7;" horiz-adv-x="597" 
d="M555 466q0 -11 -4.5 -20t-15.5 -9q-16 0 -25 6q-16 45 -27.5 76.5t-30.5 58t-43 46.5t-53 24q-7 7 -7 18q2 14 2 21q0 3 -2 11q6 5 16 5q6 0 17.5 -2.5t16.5 -2.5q3 -1 33.5 -12.5t42.5 -11.5q22 0 35 24q3 2 15.5 20t18.5 18q10 0 10 -36zM373 -146q0 -21 -9.5 -37
t-27.5 -16h-106v66h63v49h-18q-30 0 -30 29v57q-65 13 -120.5 67t-79.5 121q-23 80 -23 163q0 84 26.5 157.5t83.5 126.5q37 31 73 49t75 18h12q9 -2 13 -2l2 2q2 -1 2 -6v-24q0 -16 -3 -23q-19 -9 -35 -27t-16 -46l1 -112v-356q0 -18 16 -30t47 -27v-53l2 -36h22
q30 0 30 -26v-84zM555 200q7 -11 7 -23q0 -11 -7.5 -32t-21 -48t-63 -62t-103.5 -35q-2 14 -3.5 24t-1.5 12q0 18 9 24q45 7 84 38t47 57.5t11.5 37.5t12.5 14q9 5 14 5q6 0 15 -12z" />
    <glyph glyph-name="Eacute" unicode="&#xc9;" horiz-adv-x="604" 
d="M562 696l-1 -198q-7 -13 -25 -13q-5 0 -13 2q-6 7 -27.5 49.5t-37.5 55.5q-18 18 -40 27t-59 18q-6 4 -6 6q1 3 1 10q-2 19 -2 28q0 17 13 19h193zM472 228q0 -14 -13 -14q-5 0 -18 5q-12 11 -25.5 43t-19.5 39q-19 12 -28 17.5t-13 13.5v25t3 27q21 6 32 21t38 78
q10 19 17.5 27t13.5 8q12 0 12 -43zM317 4q-4 -2 -5 -3t-2 -1h-248q-9 0 -16 3.5t-11 12.5q-4 17 2.5 24.5t24.5 16.5t18 18v536q0 17 -26.5 30t-26.5 26q0 5 3 13q9 9 24 14.5t45 5.5h218v-696zM573 6q0 -3 -3.5 -4t-5.5 -2h-199q-9 0 -9 18q0 9 1.5 16.5t4.5 21.5
q52 5 94.5 40t57.5 84q4 10 9 21t17 13q3 0 11 3t12 3q10 0 10 -24v-190zM431 889l-97 -146h-105l47 146h155z" />
    <glyph glyph-name="Ntilde" unicode="&#xd1;" horiz-adv-x="691" 
d="M671 674q0 -23 -29.5 -39t-33 -26.5t-6.5 -22t-4 -15.5l-1 -265l-3 -3q-19 23 -38.5 49t-19.5 49v164q0 28 -18.5 49t-49.5 39q-4 5 -0.5 19t3.5 17q4 6 11 8.5t25 2.5h90t54.5 -1.5t10.5 -6.5t9 -18zM599 5q0 -7 -9 -7h-129q-2 2 -9 4q-60 103 -143 246.5t-118.5 205.5
t-69.5 121t-59.5 70t-25.5 25q0 2 1.5 10.5t10 14t17.5 5.5h256q57 -93 96 -158t92 -157t90 -157v-223zM236 33q3 -7 1.5 -13.5t-6.5 -14.5l-14 -7h-159q-15 4 -21.5 8.5t-6.5 16.5q2 16 30.5 37t32.5 37q10 27 12.5 57t2.5 74v292q8 -1 16 -1q37 -36 37 -90l1 -287
q0 -29 14 -55t40 -35q7 -5 13 -9.5t7 -9.5zM527 875q-8 -48 -37 -87.5t-72 -39.5q-13 0 -45 16t-39.5 17t-21.5 3.5t-20 2.5q-18 0 -31 -25h-83q6 44 38.5 80.5t76.5 43.5q14 0 30.5 -5t47 -18t46.5 -13q8 0 12 3t16 22h82z" />
    <glyph glyph-name="Odieresis" unicode="&#xd6;" horiz-adv-x="666" 
d="M312 36v-26q0 -14 -9 -14q-73 0 -140 49.5t-90 102.5t-29.5 86t-11.5 85q0 65 2 94.5t12 62.5q15 71 63 132.5t92.5 76t61 19t31.5 4.5q9 0 14 -1l2 2q1 -2 0 -8t1 -17.5t2 -15.5q0 -6 -3 -12q-11 -7 -23 -14.5t-16 -20.5q-5 -25 -5 -53l1 -480q0 -8 8.5 -19.5
t18.5 -18.5q18 -5 18 -14zM637 316q-5 -50 -11.5 -84t-29.5 -86.5t-90 -103t-140 -50.5q-9 1 -9 15v26q0 5 5.5 8.5t12.5 5.5q10 7 18 18t8 20v480v13q0 23 -3 37t-18 24l-21 14q-3 6 -3 13q0 3 2 14t0.5 17.5t-0.5 8.5q1 -1 3 -2q5 1 15 1q17 0 34.5 -5.5t59 -19t90 -74.5
t63.5 -133q9 -28 11.5 -66t2.5 -91zM529 827q0 -33 -23.5 -57.5t-57.5 -24.5q-36 0 -59 24t-23 58q0 33 23.5 57.5t58.5 24.5t58 -24t23 -58zM296 827q0 -33 -23.5 -57.5t-58.5 -24.5t-58 24t-23 58q0 33 23.5 57.5t57.5 24.5q36 0 59 -24t23 -58z" />
    <glyph glyph-name="Udieresis" unicode="&#xdc;" horiz-adv-x="679" 
d="M664 679q0 -23 -37.5 -45.5t-37.5 -43.5v-144v-195q0 -83 -11 -116t-37.5 -65.5t-58.5 -48t-71 -20.5l-4 1q-1 10 -1.5 18t-0.5 14q0 16 4 27q40 6 78 42t38 78l1 381q-2 27 -14.5 49.5t-37.5 35.5q-17 2 -25 20q-5 14 7 24q2 4 18 9h69.5t68.5 1q28 0 37.5 -3t14.5 -19z
M365 51q1 -22 1 -33q0 -17 -10 -22q-54 0 -98 7t-90.5 34t-67 74.5t-20.5 116.5v398q0 12 -24 24.5t-24 21.5q0 6 3.5 13.5t10.5 11t17 3.5h285q5 0 9 -7t5 -14q6 -13 -1 -20t-27.5 -14.5t-20.5 -18.5v-530q0 -20 24.5 -29t27.5 -16zM553 827q0 -33 -23.5 -57.5t-57.5 -24.5
q-36 0 -59 24t-23 58q0 33 23.5 57.5t58.5 24.5t58 -24t23 -58zM320 827q0 -33 -23.5 -57.5t-58.5 -24.5t-58 24t-23 58q0 33 23.5 57.5t57.5 24.5q36 0 59 -24t23 -58z" />
    <glyph glyph-name="aacute" unicode="&#xe1;" horiz-adv-x="642" 
d="M642 18q-7 -9 -18 -13.5t-24 -4.5h-258q-6 0 -10.5 7t-7.5 17q0 14 21 32t21 32q0 4 -2.5 12.5t-7.5 34.5t-10.5 32t-9.5 7h-127q-6 0 -6 7q1 8 1 10q4 6 8 23.5t12 23.5h94q7 7 7 17q0 6 -3 17t-3 16q-20 75 -43.5 171.5t-44.5 186.5q1 16 3 33q5 21 20 21h183
q6 0 27.5 -88t31 -124t46 -174t64.5 -240q4 -7 22 -20t18 -23q0 -6 -4 -13zM233 460q-49 -196 -59.5 -238.5t-23.5 -106.5q-5 -42 32 -56q11 -8 18.5 -13t9.5 -13q4 -11 -1.5 -22t-13.5 -11h-168q-5 2 -12.5 7.5t-9.5 15.5q0 14 21.5 24.5t31 18.5t19.5 24.5t42.5 137
t89.5 336.5q2 -2 4 -9zM437 889l-97 -146h-105l47 146h155z" />
    <glyph glyph-name="agrave" unicode="&#xe0;" horiz-adv-x="642" 
d="M642 18q-7 -9 -18 -13.5t-24 -4.5h-258q-6 0 -10.5 7t-7.5 17q0 14 21 32t21 32q0 4 -2.5 12.5t-7.5 34.5t-10.5 32t-9.5 7h-127q-6 0 -6 7q1 8 1 10q4 6 8 23.5t12 23.5h94q7 7 7 17q0 6 -3 17t-3 16q-20 75 -43.5 171.5t-44.5 186.5q1 16 3 33q5 21 20 21h183
q6 0 27.5 -88t31 -124t46 -174t64.5 -240q4 -7 22 -20t18 -23q0 -6 -4 -13zM233 460q-49 -196 -59.5 -238.5t-23.5 -106.5q-5 -42 32 -56q11 -8 18.5 -13t9.5 -13q4 -11 -1.5 -22t-13.5 -11h-168q-5 2 -12.5 7.5t-9.5 15.5q0 14 21.5 24.5t31 18.5t19.5 24.5t42.5 137
t89.5 336.5q2 -2 4 -9zM425 743h-107l-95 146h154z" />
    <glyph glyph-name="acircumflex" unicode="&#xe2;" horiz-adv-x="642" 
d="M642 18q-7 -9 -18 -13.5t-24 -4.5h-258q-6 0 -10.5 7t-7.5 17q0 14 21 32t21 32q0 4 -2.5 12.5t-7.5 34.5t-10.5 32t-9.5 7h-127q-6 0 -6 7q1 8 1 10q4 6 8 23.5t12 23.5h94q7 7 7 17q0 6 -3 17t-3 16q-20 75 -43.5 171.5t-44.5 186.5q1 16 3 33q5 21 20 21h183
q6 0 27.5 -88t31 -124t46 -174t64.5 -240q4 -7 22 -20t18 -23q0 -6 -4 -13zM233 460q-49 -196 -59.5 -238.5t-23.5 -106.5q-5 -42 32 -56q11 -8 18.5 -13t9.5 -13q4 -11 -1.5 -22t-13.5 -11h-168q-5 2 -12.5 7.5t-9.5 15.5q0 14 21.5 24.5t31 18.5t19.5 24.5t42.5 137
t89.5 336.5q2 -2 4 -9zM492 743h-127l-32 64l-32 -64h-126l100 146h117z" />
    <glyph glyph-name="adieresis" unicode="&#xe4;" horiz-adv-x="642" 
d="M642 18q-7 -9 -18 -13.5t-24 -4.5h-258q-6 0 -10.5 7t-7.5 17q0 14 21 32t21 32q0 4 -2.5 12.5t-7.5 34.5t-10.5 32t-9.5 7h-127q-6 0 -6 7q1 8 1 10q4 6 8 23.5t12 23.5h94q7 7 7 17q0 6 -3 17t-3 16q-20 75 -43.5 171.5t-44.5 186.5q1 16 3 33q5 21 20 21h183
q6 0 27.5 -88t31 -124t46 -174t64.5 -240q4 -7 22 -20t18 -23q0 -6 -4 -13zM233 460q-49 -196 -59.5 -238.5t-23.5 -106.5q-5 -42 32 -56q11 -8 18.5 -13t9.5 -13q4 -11 -1.5 -22t-13.5 -11h-168q-5 2 -12.5 7.5t-9.5 15.5q0 14 21.5 24.5t31 18.5t19.5 24.5t42.5 137
t89.5 336.5q2 -2 4 -9zM529 827q0 -33 -23.5 -57.5t-57.5 -24.5q-36 0 -59 24t-23 58q0 33 23.5 57.5t58.5 24.5t58 -24t23 -58zM296 827q0 -33 -23.5 -57.5t-58.5 -24.5t-58 24t-23 58q0 33 23.5 57.5t57.5 24.5q36 0 59 -24t23 -58z" />
    <glyph glyph-name="atilde" unicode="&#xe3;" horiz-adv-x="642" 
d="M642 18q-7 -9 -18 -13.5t-24 -4.5h-258q-6 0 -10.5 7t-7.5 17q0 14 21 32t21 32q0 4 -2.5 12.5t-7.5 34.5t-10.5 32t-9.5 7h-127q-6 0 -6 7q1 8 1 10q4 6 8 23.5t12 23.5h94q7 7 7 17q0 6 -3 17t-3 16q-20 75 -43.5 171.5t-44.5 186.5q1 16 3 33q5 21 20 21h183
q6 0 27.5 -88t31 -124t46 -174t64.5 -240q4 -7 22 -20t18 -23q0 -6 -4 -13zM233 460q-49 -196 -59.5 -238.5t-23.5 -106.5q-5 -42 32 -56q11 -8 18.5 -13t9.5 -13q4 -11 -1.5 -22t-13.5 -11h-168q-5 2 -12.5 7.5t-9.5 15.5q0 14 21.5 24.5t31 18.5t19.5 24.5t42.5 137
t89.5 336.5q2 -2 4 -9zM488 875q-8 -48 -37 -87.5t-72 -39.5q-13 0 -45 16t-39.5 17t-21.5 3.5t-20 2.5q-18 0 -31 -25h-83q6 44 38.5 80.5t76.5 43.5q14 0 30.5 -5t47 -18t46.5 -13q8 0 12 3t16 22h82z" />
    <glyph glyph-name="aring" unicode="&#xe5;" horiz-adv-x="642" 
d="M445 846q0 -44 -31 -76t-77 -32q-45 0 -77 32t-32 76q0 45 31.5 76.5t77.5 31.5q44 0 76 -32t32 -76zM370 846q0 15 -10 24t-24 9t-23.5 -9.5t-9.5 -23.5q0 -33 33 -33q13 0 23.5 9.5t10.5 23.5zM642 18q-7 -9 -18 -13.5t-24 -4.5h-258q-6 0 -10.5 7t-7.5 17q0 14 21 32
t21 32q0 4 -2.5 12.5t-7.5 34.5t-10.5 32t-9.5 7h-127q-6 0 -6 7q1 8 1 10q4 6 8 23.5t12 23.5h94q7 7 7 17q0 6 -3 17t-3 16q-20 75 -43.5 171.5t-44.5 186.5q1 16 3 33q5 21 20 21h183q6 0 27.5 -88t31 -124t46 -174t64.5 -240q4 -7 22 -20t18 -23q0 -6 -4 -13zM233 460
q-49 -196 -59.5 -238.5t-23.5 -106.5q-5 -42 32 -56q11 -8 18.5 -13t9.5 -13q4 -11 -1.5 -22t-13.5 -11h-168q-5 2 -12.5 7.5t-9.5 15.5q0 14 21.5 24.5t31 18.5t19.5 24.5t42.5 137t89.5 336.5q2 -2 4 -9z" />
    <glyph glyph-name="ccedilla" unicode="&#xe7;" horiz-adv-x="597" 
d="M555 466q0 -11 -4.5 -20t-15.5 -9q-16 0 -25 6q-16 45 -27.5 76.5t-30.5 58t-43 46.5t-53 24q-7 7 -7 18q2 14 2 21q0 3 -2 11q6 5 16 5q6 0 17.5 -2.5t16.5 -2.5q3 -1 33.5 -12.5t42.5 -11.5q22 0 35 24q3 2 15.5 20t18.5 18q10 0 10 -36zM373 -146q0 -21 -9.5 -37
t-27.5 -16h-106v66h63v49h-18q-30 0 -30 29v57q-65 13 -120.5 67t-79.5 121q-23 80 -23 163q0 84 26.5 157.5t83.5 126.5q37 31 73 49t75 18h12q9 -2 13 -2l2 2q2 -1 2 -6v-24q0 -16 -3 -23q-19 -9 -35 -27t-16 -46l1 -112v-356q0 -18 16 -30t47 -27v-53l2 -36h22
q30 0 30 -26v-84zM555 200q7 -11 7 -23q0 -11 -7.5 -32t-21 -48t-63 -62t-103.5 -35q-2 14 -3.5 24t-1.5 12q0 18 9 24q45 7 84 38t47 57.5t11.5 37.5t12.5 14q9 5 14 5q6 0 15 -12z" />
    <glyph glyph-name="eacute" unicode="&#xe9;" horiz-adv-x="604" 
d="M562 696l-1 -198q-7 -13 -25 -13q-5 0 -13 2q-6 7 -27.5 49.5t-37.5 55.5q-18 18 -40 27t-59 18q-6 4 -6 6q1 3 1 10q-2 19 -2 28q0 17 13 19h193zM472 228q0 -14 -13 -14q-5 0 -18 5q-12 11 -25.5 43t-19.5 39q-19 12 -28 17.5t-13 13.5v25t3 27q21 6 32 21t38 78
q10 19 17.5 27t13.5 8q12 0 12 -43zM317 4q-4 -2 -5 -3t-2 -1h-248q-9 0 -16 3.5t-11 12.5q-4 17 2.5 24.5t24.5 16.5t18 18v536q0 17 -26.5 30t-26.5 26q0 5 3 13q9 9 24 14.5t45 5.5h218v-696zM573 6q0 -3 -3.5 -4t-5.5 -2h-199q-9 0 -9 18q0 9 1.5 16.5t4.5 21.5
q52 5 94.5 40t57.5 84q4 10 9 21t17 13q3 0 11 3t12 3q10 0 10 -24v-190zM431 889l-97 -146h-105l47 146h155z" />
    <glyph glyph-name="egrave" unicode="&#xe8;" horiz-adv-x="604" 
d="M562 696l-1 -198q-7 -13 -25 -13q-5 0 -13 2q-6 7 -27.5 49.5t-37.5 55.5q-18 18 -40 27t-59 18q-6 4 -6 6q1 3 1 10q-2 19 -2 28q0 17 13 19h193zM472 228q0 -14 -13 -14q-5 0 -18 5q-12 11 -25.5 43t-19.5 39q-19 12 -28 17.5t-13 13.5v25t3 27q21 6 32 21t38 78
q10 19 17.5 27t13.5 8q12 0 12 -43zM317 4q-4 -2 -5 -3t-2 -1h-248q-9 0 -16 3.5t-11 12.5q-4 17 2.5 24.5t24.5 16.5t18 18v536q0 17 -26.5 30t-26.5 26q0 5 3 13q9 9 24 14.5t45 5.5h218v-696zM573 6q0 -3 -3.5 -4t-5.5 -2h-199q-9 0 -9 18q0 9 1.5 16.5t4.5 21.5
q52 5 94.5 40t57.5 84q4 10 9 21t17 13q3 0 11 3t12 3q10 0 10 -24v-190zM404 743h-107l-95 146h154z" />
    <glyph glyph-name="ecircumflex" unicode="&#xea;" horiz-adv-x="604" 
d="M562 696l-1 -198q-7 -13 -25 -13q-5 0 -13 2q-6 7 -27.5 49.5t-37.5 55.5q-18 18 -40 27t-59 18q-6 4 -6 6q1 3 1 10q-2 19 -2 28q0 17 13 19h193zM472 228q0 -14 -13 -14q-5 0 -18 5q-12 11 -25.5 43t-19.5 39q-19 12 -28 17.5t-13 13.5v25t3 27q21 6 32 21t38 78
q10 19 17.5 27t13.5 8q12 0 12 -43zM317 4q-4 -2 -5 -3t-2 -1h-248q-9 0 -16 3.5t-11 12.5q-4 17 2.5 24.5t24.5 16.5t18 18v536q0 17 -26.5 30t-26.5 26q0 5 3 13q9 9 24 14.5t45 5.5h218v-696zM573 6q0 -3 -3.5 -4t-5.5 -2h-199q-9 0 -9 18q0 9 1.5 16.5t4.5 21.5
q52 5 94.5 40t57.5 84q4 10 9 21t17 13q3 0 11 3t12 3q10 0 10 -24v-190zM465 743h-127l-32 64l-32 -64h-126l100 146h117z" />
    <glyph glyph-name="edieresis" unicode="&#xeb;" horiz-adv-x="604" 
d="M562 696l-1 -198q-7 -13 -25 -13q-5 0 -13 2q-6 7 -27.5 49.5t-37.5 55.5q-18 18 -40 27t-59 18q-6 4 -6 6q1 3 1 10q-2 19 -2 28q0 17 13 19h193zM472 228q0 -14 -13 -14q-5 0 -18 5q-12 11 -25.5 43t-19.5 39q-19 12 -28 17.5t-13 13.5v25t3 27q21 6 32 21t38 78
q10 19 17.5 27t13.5 8q12 0 12 -43zM317 4q-4 -2 -5 -3t-2 -1h-248q-9 0 -16 3.5t-11 12.5q-4 17 2.5 24.5t24.5 16.5t18 18v536q0 17 -26.5 30t-26.5 26q0 5 3 13q9 9 24 14.5t45 5.5h218v-696zM573 6q0 -3 -3.5 -4t-5.5 -2h-199q-9 0 -9 18q0 9 1.5 16.5t4.5 21.5
q52 5 94.5 40t57.5 84q4 10 9 21t17 13q3 0 11 3t12 3q10 0 10 -24v-190zM508 827q0 -33 -23.5 -57.5t-57.5 -24.5q-36 0 -59 24t-23 58q0 33 23.5 57.5t58.5 24.5t58 -24t23 -58zM275 827q0 -33 -23.5 -57.5t-58.5 -24.5t-58 24t-23 58q0 33 23.5 57.5t57.5 24.5
q36 0 59 -24t23 -58z" />
    <glyph glyph-name="iacute" unicode="&#xed;" horiz-adv-x="390" 
d="M361 677q3 -5 3 -10q0 -7 -4.5 -13.5t-12.5 -11.5q-8 0 -15 -7t-13 -17q-6 -14 -6 -28v-508q0 -16 26 -30t26 -25q0 -8 -8 -19q-9 -6 -26 -8t-20 -2q-8 0 -15.5 0.5t-14.5 0.5h-225q-20 0 -25 23q-1 10 3 16t15 13q16 4 23.5 8t7.5 13v546q-2 13 -25 25t-23 24
q0 7 6.5 16.5t16.5 13t25 3.5h253q8 0 15 -6t13 -17zM311 889l-97 -146h-105l47 146h155z" />
    <glyph glyph-name="igrave" unicode="&#xec;" horiz-adv-x="390" 
d="M361 677q3 -5 3 -10q0 -7 -4.5 -13.5t-12.5 -11.5q-8 0 -15 -7t-13 -17q-6 -14 -6 -28v-508q0 -16 26 -30t26 -25q0 -8 -8 -19q-9 -6 -26 -8t-20 -2q-8 0 -15.5 0.5t-14.5 0.5h-225q-20 0 -25 23q-1 10 3 16t15 13q16 4 23.5 8t7.5 13v546q-2 13 -25 25t-23 24
q0 7 6.5 16.5t16.5 13t25 3.5h253q8 0 15 -6t13 -17zM287 743h-107l-95 146h154z" />
    <glyph glyph-name="icircumflex" unicode="&#xee;" horiz-adv-x="390" 
d="M361 677q3 -5 3 -10q0 -7 -4.5 -13.5t-12.5 -11.5q-8 0 -15 -7t-13 -17q-6 -14 -6 -28v-508q0 -16 26 -30t26 -25q0 -8 -8 -19q-9 -6 -26 -8t-20 -2q-8 0 -15.5 0.5t-14.5 0.5h-225q-20 0 -25 23q-1 10 3 16t15 13q16 4 23.5 8t7.5 13v546q-2 13 -25 25t-23 24
q0 7 6.5 16.5t16.5 13t25 3.5h253q8 0 15 -6t13 -17zM354 743h-127l-32 64l-32 -64h-126l100 146h117z" />
    <glyph glyph-name="idieresis" unicode="&#xef;" horiz-adv-x="390" 
d="M361 677q3 -5 3 -10q0 -7 -4.5 -13.5t-12.5 -11.5q-8 0 -15 -7t-13 -17q-6 -14 -6 -28v-508q0 -16 26 -30t26 -25q0 -8 -8 -19q-9 -6 -26 -8t-20 -2q-8 0 -15.5 0.5t-14.5 0.5h-225q-20 0 -25 23q-1 10 3 16t15 13q16 4 23.5 8t7.5 13v546q-2 13 -25 25t-23 24
q0 7 6.5 16.5t16.5 13t25 3.5h253q8 0 15 -6t13 -17zM394 827q0 -33 -23.5 -57.5t-57.5 -24.5q-36 0 -59 24t-23 58q0 33 23.5 57.5t58.5 24.5t58 -24t23 -58zM161 827q0 -33 -23.5 -57.5t-58.5 -24.5t-58 24t-23 58q0 33 23.5 57.5t57.5 24.5q36 0 59 -24t23 -58z" />
    <glyph glyph-name="ntilde" unicode="&#xf1;" horiz-adv-x="691" 
d="M671 674q0 -23 -29.5 -39t-33 -26.5t-6.5 -22t-4 -15.5l-1 -265l-3 -3q-19 23 -38.5 49t-19.5 49v164q0 28 -18.5 49t-49.5 39q-4 5 -0.5 19t3.5 17q4 6 11 8.5t25 2.5h90t54.5 -1.5t10.5 -6.5t9 -18zM599 5q0 -7 -9 -7h-129q-2 2 -9 4q-60 103 -143 246.5t-118.5 205.5
t-69.5 121t-59.5 70t-25.5 25q0 2 1.5 10.5t10 14t17.5 5.5h256q57 -93 96 -158t92 -157t90 -157v-223zM236 33q3 -7 1.5 -13.5t-6.5 -14.5l-14 -7h-159q-15 4 -21.5 8.5t-6.5 16.5q2 16 30.5 37t32.5 37q10 27 12.5 57t2.5 74v292q8 -1 16 -1q37 -36 37 -90l1 -287
q0 -29 14 -55t40 -35q7 -5 13 -9.5t7 -9.5zM527 875q-8 -48 -37 -87.5t-72 -39.5q-13 0 -45 16t-39.5 17t-21.5 3.5t-20 2.5q-18 0 -31 -25h-83q6 44 38.5 80.5t76.5 43.5q14 0 30.5 -5t47 -18t46.5 -13q8 0 12 3t16 22h82z" />
    <glyph glyph-name="oacute" unicode="&#xf3;" horiz-adv-x="666" 
d="M312 36v-26q0 -14 -9 -14q-73 0 -140 49.5t-90 102.5t-29.5 86t-11.5 85q0 65 2 94.5t12 62.5q15 71 63 132.5t92.5 76t61 19t31.5 4.5q9 0 14 -1l2 2q1 -2 0 -8t1 -17.5t2 -15.5q0 -6 -3 -12q-11 -7 -23 -14.5t-16 -20.5q-5 -25 -5 -53l1 -480q0 -8 8.5 -19.5
t18.5 -18.5q18 -5 18 -14zM637 316q-5 -50 -11.5 -84t-29.5 -86.5t-90 -103t-140 -50.5q-9 1 -9 15v26q0 5 5.5 8.5t12.5 5.5q10 7 18 18t8 20v480v13q0 23 -3 37t-18 24l-21 14q-3 6 -3 13q0 3 2 14t0.5 17.5t-0.5 8.5q1 -1 3 -2q5 1 15 1q17 0 34.5 -5.5t59 -19t90 -74.5
t63.5 -133q9 -28 11.5 -66t2.5 -91zM428 889l-97 -146h-105l47 146h155z" />
    <glyph glyph-name="ograve" unicode="&#xf2;" horiz-adv-x="666" 
d="M312 36v-26q0 -14 -9 -14q-73 0 -140 49.5t-90 102.5t-29.5 86t-11.5 85q0 65 2 94.5t12 62.5q15 71 63 132.5t92.5 76t61 19t31.5 4.5q9 0 14 -1l2 2q1 -2 0 -8t1 -17.5t2 -15.5q0 -6 -3 -12q-11 -7 -23 -14.5t-16 -20.5q-5 -25 -5 -53l1 -480q0 -8 8.5 -19.5
t18.5 -18.5q18 -5 18 -14zM637 316q-5 -50 -11.5 -84t-29.5 -86.5t-90 -103t-140 -50.5q-9 1 -9 15v26q0 5 5.5 8.5t12.5 5.5q10 7 18 18t8 20v480v13q0 23 -3 37t-18 24l-21 14q-3 6 -3 13q0 3 2 14t0.5 17.5t-0.5 8.5q1 -1 3 -2q5 1 15 1q17 0 34.5 -5.5t59 -19t90 -74.5
t63.5 -133q9 -28 11.5 -66t2.5 -91zM419 743h-107l-95 146h154z" />
    <glyph glyph-name="ocircumflex" unicode="&#xf4;" horiz-adv-x="666" 
d="M312 36v-26q0 -14 -9 -14q-73 0 -140 49.5t-90 102.5t-29.5 86t-11.5 85q0 65 2 94.5t12 62.5q15 71 63 132.5t92.5 76t61 19t31.5 4.5q9 0 14 -1l2 2q1 -2 0 -8t1 -17.5t2 -15.5q0 -6 -3 -12q-11 -7 -23 -14.5t-16 -20.5q-5 -25 -5 -53l1 -480q0 -8 8.5 -19.5
t18.5 -18.5q18 -5 18 -14zM637 316q-5 -50 -11.5 -84t-29.5 -86.5t-90 -103t-140 -50.5q-9 1 -9 15v26q0 5 5.5 8.5t12.5 5.5q10 7 18 18t8 20v480v13q0 23 -3 37t-18 24l-21 14q-3 6 -3 13q0 3 2 14t0.5 17.5t-0.5 8.5q1 -1 3 -2q5 1 15 1q17 0 34.5 -5.5t59 -19t90 -74.5
t63.5 -133q9 -28 11.5 -66t2.5 -91zM492 743h-127l-32 64l-32 -64h-126l100 146h117z" />
    <glyph glyph-name="odieresis" unicode="&#xf6;" horiz-adv-x="666" 
d="M312 36v-26q0 -14 -9 -14q-73 0 -140 49.5t-90 102.5t-29.5 86t-11.5 85q0 65 2 94.5t12 62.5q15 71 63 132.5t92.5 76t61 19t31.5 4.5q9 0 14 -1l2 2q1 -2 0 -8t1 -17.5t2 -15.5q0 -6 -3 -12q-11 -7 -23 -14.5t-16 -20.5q-5 -25 -5 -53l1 -480q0 -8 8.5 -19.5
t18.5 -18.5q18 -5 18 -14zM637 316q-5 -50 -11.5 -84t-29.5 -86.5t-90 -103t-140 -50.5q-9 1 -9 15v26q0 5 5.5 8.5t12.5 5.5q10 7 18 18t8 20v480v13q0 23 -3 37t-18 24l-21 14q-3 6 -3 13q0 3 2 14t0.5 17.5t-0.5 8.5q1 -1 3 -2q5 1 15 1q17 0 34.5 -5.5t59 -19t90 -74.5
t63.5 -133q9 -28 11.5 -66t2.5 -91zM529 827q0 -33 -23.5 -57.5t-57.5 -24.5q-36 0 -59 24t-23 58q0 33 23.5 57.5t58.5 24.5t58 -24t23 -58zM296 827q0 -33 -23.5 -57.5t-58.5 -24.5t-58 24t-23 58q0 33 23.5 57.5t57.5 24.5q36 0 59 -24t23 -58z" />
    <glyph glyph-name="otilde" unicode="&#xf5;" horiz-adv-x="666" 
d="M312 36v-26q0 -14 -9 -14q-73 0 -140 49.5t-90 102.5t-29.5 86t-11.5 85q0 65 2 94.5t12 62.5q15 71 63 132.5t92.5 76t61 19t31.5 4.5q9 0 14 -1l2 2q1 -2 0 -8t1 -17.5t2 -15.5q0 -6 -3 -12q-11 -7 -23 -14.5t-16 -20.5q-5 -25 -5 -53l1 -480q0 -8 8.5 -19.5
t18.5 -18.5q18 -5 18 -14zM637 316q-5 -50 -11.5 -84t-29.5 -86.5t-90 -103t-140 -50.5q-9 1 -9 15v26q0 5 5.5 8.5t12.5 5.5q10 7 18 18t8 20v480v13q0 23 -3 37t-18 24l-21 14q-3 6 -3 13q0 3 2 14t0.5 17.5t-0.5 8.5q1 -1 3 -2q5 1 15 1q17 0 34.5 -5.5t59 -19t90 -74.5
t63.5 -133q9 -28 11.5 -66t2.5 -91zM497 875q-8 -48 -37 -87.5t-72 -39.5q-13 0 -45 16t-39.5 17t-21.5 3.5t-20 2.5q-18 0 -31 -25h-83q6 44 38.5 80.5t76.5 43.5q14 0 30.5 -5t47 -18t46.5 -13q8 0 12 3t16 22h82z" />
    <glyph glyph-name="uacute" unicode="&#xfa;" horiz-adv-x="679" 
d="M664 679q0 -23 -37.5 -45.5t-37.5 -43.5v-144v-195q0 -83 -11 -116t-37.5 -65.5t-58.5 -48t-71 -20.5l-4 1q-1 10 -1.5 18t-0.5 14q0 16 4 27q40 6 78 42t38 78l1 381q-2 27 -14.5 49.5t-37.5 35.5q-17 2 -25 20q-5 14 7 24q2 4 18 9h69.5t68.5 1q28 0 37.5 -3t14.5 -19z
M365 51q1 -22 1 -33q0 -17 -10 -22q-54 0 -98 7t-90.5 34t-67 74.5t-20.5 116.5v398q0 12 -24 24.5t-24 21.5q0 6 3.5 13.5t10.5 11t17 3.5h285q5 0 9 -7t5 -14q6 -13 -1 -20t-27.5 -14.5t-20.5 -18.5v-530q0 -20 24.5 -29t27.5 -16zM467 889l-97 -146h-105l47 146h155z" />
    <glyph glyph-name="ugrave" unicode="&#xf9;" horiz-adv-x="679" 
d="M664 679q0 -23 -37.5 -45.5t-37.5 -43.5v-144v-195q0 -83 -11 -116t-37.5 -65.5t-58.5 -48t-71 -20.5l-4 1q-1 10 -1.5 18t-0.5 14q0 16 4 27q40 6 78 42t38 78l1 381q-2 27 -14.5 49.5t-37.5 35.5q-17 2 -25 20q-5 14 7 24q2 4 18 9h69.5t68.5 1q28 0 37.5 -3t14.5 -19z
M365 51q1 -22 1 -33q0 -17 -10 -22q-54 0 -98 7t-90.5 34t-67 74.5t-20.5 116.5v398q0 12 -24 24.5t-24 21.5q0 6 3.5 13.5t10.5 11t17 3.5h285q5 0 9 -7t5 -14q6 -13 -1 -20t-27.5 -14.5t-20.5 -18.5v-530q0 -20 24.5 -29t27.5 -16zM431 743h-107l-95 146h154z" />
    <glyph glyph-name="ucircumflex" unicode="&#xfb;" horiz-adv-x="679" 
d="M664 679q0 -23 -37.5 -45.5t-37.5 -43.5v-144v-195q0 -83 -11 -116t-37.5 -65.5t-58.5 -48t-71 -20.5l-4 1q-1 10 -1.5 18t-0.5 14q0 16 4 27q40 6 78 42t38 78l1 381q-2 27 -14.5 49.5t-37.5 35.5q-17 2 -25 20q-5 14 7 24q2 4 18 9h69.5t68.5 1q28 0 37.5 -3t14.5 -19z
M365 51q1 -22 1 -33q0 -17 -10 -22q-54 0 -98 7t-90.5 34t-67 74.5t-20.5 116.5v398q0 12 -24 24.5t-24 21.5q0 6 3.5 13.5t10.5 11t17 3.5h285q5 0 9 -7t5 -14q6 -13 -1 -20t-27.5 -14.5t-20.5 -18.5v-530q0 -20 24.5 -29t27.5 -16zM510 743h-127l-32 64l-32 -64h-126
l100 146h117z" />
    <glyph glyph-name="udieresis" unicode="&#xfc;" horiz-adv-x="679" 
d="M664 679q0 -23 -37.5 -45.5t-37.5 -43.5v-144v-195q0 -83 -11 -116t-37.5 -65.5t-58.5 -48t-71 -20.5l-4 1q-1 10 -1.5 18t-0.5 14q0 16 4 27q40 6 78 42t38 78l1 381q-2 27 -14.5 49.5t-37.5 35.5q-17 2 -25 20q-5 14 7 24q2 4 18 9h69.5t68.5 1q28 0 37.5 -3t14.5 -19z
M365 51q1 -22 1 -33q0 -17 -10 -22q-54 0 -98 7t-90.5 34t-67 74.5t-20.5 116.5v398q0 12 -24 24.5t-24 21.5q0 6 3.5 13.5t10.5 11t17 3.5h285q5 0 9 -7t5 -14q6 -13 -1 -20t-27.5 -14.5t-20.5 -18.5v-530q0 -20 24.5 -29t27.5 -16zM553 827q0 -33 -23.5 -57.5t-57.5 -24.5
q-36 0 -59 24t-23 58q0 33 23.5 57.5t58.5 24.5t58 -24t23 -58zM320 827q0 -33 -23.5 -57.5t-58.5 -24.5t-58 24t-23 58q0 33 23.5 57.5t57.5 24.5q36 0 59 -24t23 -58z" />
    <glyph glyph-name="dagger" unicode="&#x2020;" 
 />
    <glyph glyph-name="degree" unicode="&#xb0;" 
 />
    <glyph glyph-name="cent" unicode="&#xa2;" horiz-adv-x="453" 
d="M422 502q5 -14 5 -18v-9q0 -34 -21.5 -55.5t-54.5 -21.5q-12 0 -23.5 5t-20.5 14q9 44 19.5 80t16 53.5t11.5 17.5q13 -7 19 -9q19 -11 30 -23t19 -34zM253 577q-13 -44 -37 -133.5t-40 -150.5t-43 -157q-4 -4 -9 -3q-7 4 -33.5 22.5t-48.5 66.5t-22 108v30q3 14 9 51
t57 96t94 66.5t64 11.5q10 0 9 -8zM356 681l-196 -711q-7 -5 -18 -5t-21 5q35 144 64.5 259.5t53.5 203.5t73 258q6 6 23 6q11 0 17 -3.5t4 -12.5zM410 228q-4 -27 -21 -47t-43 -38.5t-55.5 -26t-61.5 -7.5q-2 4 -2 12q0 10 3 16.5t13 21.5q5 -1 15 -1q33 0 60.5 22t57.5 60
q8 6 13.5 8.5t10.5 2.5q11 0 11 -14q0 -6 -1 -9z" />
    <glyph glyph-name="sterling" unicode="&#xa3;" horiz-adv-x="560" 
d="M508 563q2 -8 2 -24q0 -47 -32.5 -76.5t-78.5 -29.5q-14 0 -28 3q-22 8 -40 26.5t-18 39.5q-1 5 -1 15q0 24 11.5 44.5t33.5 40.5q1 11 -11.5 15t-13.5 17t-1 22q0 16 6 23q51 0 107.5 -41t63.5 -75zM419 282q-13 -2 -29.5 -2h-25.5h-34.5t-35.5 -2l-30 -52
q-11 -4 -24 -4q-10 0 -19 2t-15 5q1 21 1 32q0 14 -7 20q-7 1 -15.5 1h-12.5q-14 0 -28.5 -0.5t-28.5 -0.5h-17q-6 1 -9 1q-3 9 -3 20t3 22q12 3 43.5 3.5t44.5 4.5q1 1 0 10q-10 10 -60.5 50.5t-54 70.5t-3.5 39q0 43 21 80t71 70t118 33q9 0 25 -2q0 1 1 3q2 -5 4 -9
q0 -4 1 -16.5t1 -20.5q0 -7 -2 -19q-23 -19 -37 -42t-14 -49q0 -29 25.5 -96.5t25.5 -99.5q4 -2 7 -7q18 0 63 -2t50 -2q2 -8 2 -14q0 -4 -1 -13t-1 -14zM529 209q4 -19 4 -41q0 -38 -15 -73.5t-40.5 -58t-55.5 -32t-61 -9.5q-39 0 -79.5 10.5t-83.5 28.5q-9 0 -21.5 -8
t-27.5 -18q-24 -11 -49 -11q-26 0 -43.5 11.5t-21.5 26.5t-4 38q5 36 31.5 65.5t62.5 44.5q37 11 80 11q36 0 124.5 -14.5t118.5 -14.5q17 0 29 17.5t27 39.5q3 0 7 9.5t6 9.5t5.5 -9.5t6.5 -22.5z" />
    <glyph glyph-name="section" unicode="&#xa7;" horiz-adv-x="515" 
d="M484 261q0 -27 -22.5 -68t-66.5 -62q23 -20 40.5 -51t17.5 -74q0 -88 -59 -136.5t-141 -48.5q-107 0 -151 61.5t-44 120.5h122q4 -34 22 -56.5t60 -22.5q28 0 47.5 18.5t19.5 50.5q0 22 -13 36.5t-41 29.5l-143 77q-53 28 -77 62t-24 94q0 43 23 74.5t64 54.5
q-22 21 -35.5 47.5t-13.5 65.5q0 72 50.5 123.5t136.5 51.5q78 0 133 -41.5t55 -137.5h-118q0 75 -72 75q-31 0 -49 -16.5t-18 -37.5q0 -32 35 -52l150 -79q55 -29 83.5 -63.5t28.5 -95.5zM369 239q0 20 -15 35t-39 27l-135 72q-14 -5 -26.5 -21.5t-12.5 -34.5q0 -20 11 -35
t31 -26l146 -81q19 11 29.5 27t10.5 37z" />
    <glyph glyph-name="bullet" unicode="&#x2022;" horiz-adv-x="187" 
d="M156 271q-10 -31 -31.5 -37t-32.5 -6q-30 0 -48.5 21.5t-15.5 56.5q4 18 16 32.5t25.5 18t18.5 3.5q19 0 35.5 -7.5t26.5 -23.5t10 -38q0 -12 -4 -20z" />
    <glyph glyph-name="paragraph" unicode="&#xb6;" 
 />
    <glyph glyph-name="germandbls" unicode="&#xdf;" horiz-adv-x="1130" 
d="M1061 509q0 -22 -21 -35q-17 -2 -28 8q-20 57 -42 93.5t-63 63.5q-20 9 -31 14t-15 12q0 11 0.5 22t6.5 19q52 0 82 -13t36 -13q10 0 30 13t25 13q11 0 19 -16v-89.5t1 -91.5zM496 509q0 -22 -21 -35q-17 -2 -28 8q-20 57 -42 93.5t-63 63.5q-20 9 -31 14t-15 12
q0 11 0.5 22t6.5 19q52 0 82 -13t36 -13q10 0 30 13t25 13q11 0 19 -16v-89.5t1 -91.5zM1087 282q2 -8 3.5 -24t1.5 -32q0 -49 -17.5 -92t-52.5 -74t-81 -44.5t-96 -13.5q-4 9 -4 22v14.5t1 15.5q23 5 34.5 10t29 20t17.5 44q0 8 -3 19q-3 22 -21 38t-49 34
q-132 60 -181.5 91.5t-59.5 85t-10 82.5q0 49 18 97.5t51 82.5q66 48 153 48q4 4 5 4v-10v-19q0 -21 -5 -28t-18 -8q-17 -8 -28.5 -25.5t-11.5 -37.5q0 -37 19.5 -52t104.5 -50.5t137 -87t63 -110.5zM522 282q2 -7 3.5 -23.5t1.5 -32.5q0 -49 -17.5 -92t-52.5 -74t-81 -44.5
t-96 -13.5q-4 9 -4 22v14.5t1 15.5q23 5 34.5 10t29 20t17.5 44q0 8 -3 19q-3 22 -21 38t-49 34q-132 60 -181.5 91.5t-59.5 85t-10 82.5q0 49 18 97.5t51 82.5q66 48 153 48q4 4 5 4v-10v-19q0 -21 -5 -28t-18 -8q-17 -8 -28.5 -25.5t-11.5 -37.5q0 -37 19.5 -52
t104.5 -50.5t137 -87t63 -110.5zM803 5q-5 -4 -9 -7q-25 2 -65.5 15t-57.5 15q-8 0 -23.5 -14.5t-22.5 -14.5q-6 0 -17 7t-11 27q0 48 1 98.5t2 101.5q0 8 6.5 15.5t15.5 10.5q28 -4 38 -30q10 -37 22 -68t44 -62t71 -41q6 -8 6 -24v-18v-11zM238 5q-5 -4 -9 -7
q-25 2 -65.5 15t-57.5 15q-8 0 -23.5 -14.5t-22.5 -14.5q-6 0 -17 7t-11 27q0 48 1 98.5t2 101.5q0 8 6.5 15.5t15.5 10.5q28 -4 38 -30q10 -37 22 -68t44 -62t71 -41q6 -8 6 -24v-18v-11z" />
    <glyph glyph-name="registered" unicode="&#xae;" horiz-adv-x="879" 
d="M804 350q0 -150 -107 -257t-257 -107t-257 107t-107 257t106 257t258 107q150 0 257 -107t107 -257zM747 350q0 127 -89 217t-218 90q-127 0 -217 -90t-90 -217q0 -128 89.5 -217.5t217.5 -89.5t217.5 89.5t89.5 217.5zM648 149q-2 -6 -7 -6h-137l-1 69l-2 36
q-4 33 -6.5 40t-14.5 37q-6 9 -13.5 13.5t-18.5 6.5q-3 4 -3 12v17q5 3 16 6t16.5 10.5t8 18t2.5 26.5q0 7 -1 23t-1 25q0 28 -25 42q-9 2 -18 5q0 8 0.5 17.5t4.5 12.5q49 0 92 -12t57.5 -31.5t18 -30.5t3.5 -26q0 -31 -14 -49q-12 -18 -29 -28t-44 -19q-2 -5 -1 -6
q28 -5 42 -26.5t24 -58.5q3 -20 5.5 -39.5t6 -31t13 -17.5t19.5 -6q7 -5 7 -18v-12zM419 144l-148 -1q-4 0 -8 6.5t-4 7.5q0 12 14 18.5t16 13.5v321q0 9 -18 17.5t-14 21.5q7 7 16.5 9t21.5 2h120l4 -3v-413z" />
    <glyph glyph-name="copyright" unicode="&#xa9;" horiz-adv-x="879" 
d="M804 350q0 -150 -107 -257t-257 -107q-152 0 -258 107t-106 257t106 257t258 107q150 0 257 -107t107 -257zM747 350q0 127 -89 217t-218 90q-127 0 -217 -90t-90 -217q0 -128 89.5 -217.5t217.5 -89.5t217.5 89.5t89.5 217.5zM570 417q0 -15 -12 -18q-7 -2 -16 5
q-10 29 -17 47t-20 35q-10 17 -26.5 30.5t-33.5 16.5q-4 3 -4 11v20q5 4 11 4q13 -4 21 -4q23 -8 47 -15q14 0 22 15q6 8 12 15.5t10 7.5q6 0 6 -22v-148zM422 124q-4 -2 -12 -2q-6 0 -18 1.5t-13 1.5q-42 6 -78 40.5t-52 78.5q-15 53 -15 103q0 52 17 98.5t53 79.5
q23 19 45.5 31t46.5 12l17 -2q0 1 1 2q1 -2 2 -3v-18t-2 -13q-12 -4 -22.5 -16t-10.5 -29l1 -72v-223q0 -9 9 -17.5t31 -18.5v-34zM570 250q5 -6 5 -14q0 -7 -3.5 -16.5t-13.5 -30t-41 -43t-65 -22.5q-2 8 -2.5 12.5t-0.5 10.5q0 11 6 15q28 4 52.5 23.5t29.5 36t7.5 24
t7.5 8.5q6 3 9 3t9 -7z" />
    <glyph glyph-name="trademark" unicode="&#x2122;" horiz-adv-x="795" 
d="M105 696q1 -10 1 -15q0 -14 -13 -19q-10 -12 -16 -29.5t-11 -42.5q-7 -7 -9 -8q-10 -2 -15 4q-7 4 -7 21v89q0 4 11 4h57zM329 594q0 -10 -11 -14q-5 -2 -14 3q-4 4 -4.5 5.5t-5 20t-9.5 32.5t-14 22t-10 12.5t-1 14.5v8v2h66l3 -5v-101zM267 360q-5 -10 -26 -10h-137
q-3 0 -6.5 3.5t-5.5 8.5q-1 10 14 19.5t15 22.5v293l4 3h110q2 0 2.5 -2.5t1.5 -3.5v-303q0 -7 15.5 -12.5t12.5 -18.5zM751 689q1 -9 -12.5 -15.5t-13.5 -12.5v-265q0 -9 14.5 -17.5t14.5 -14.5t-4 -11l-9 -4l-140 1q-10 0 -12 10q-2 8 11 15t13 14v306q0 5 19 5h107
q10 0 12 -11zM595 633v-30t1 -30v-11v-8q-2 -5 -8 -28t-22 -74.5t-32 -99.5q-5 -7 -12 -2q-14 37 -47.5 139t-48 141t-31 45.5t-14.5 19.5l7 5h132q2 0 5 -8l39 -118q4 -4 7 -3q1 1 4 10l18 55zM484 358q-5 -8 -16 -8h-77q-2 2 -4.5 5t-2.5 5q-2 10 10 18.5t20 16.5t8 33
v155q3 -5 5 -6l21 -72v-32q0 -34 2.5 -53.5t12.5 -31.5q12 -8 19.5 -14t1.5 -16z" />
    <glyph glyph-name="acute" unicode="&#xb4;" horiz-adv-x="341" 
d="M311 889l-97 -146h-105l47 146h155z" />
    <glyph glyph-name="dieresis" unicode="&#xa8;" horiz-adv-x="351" 
d="M373 827q0 -33 -23.5 -57.5t-57.5 -24.5q-36 0 -59 24t-23 58q0 33 23.5 57.5t58.5 24.5t58 -24t23 -58zM140 827q0 -33 -23.5 -57.5t-58.5 -24.5t-58 24t-23 58q0 33 23.5 57.5t57.5 24.5q36 0 59 -24t23 -58z" />
    <glyph glyph-name="AE" unicode="&#xc6;" horiz-adv-x="922" 
d="M883 696l-1 -198q-3 -7 -11 -9t-17 -2h-10q-6 7 -27.5 49.5t-37.5 55.5q-18 18 -40 27t-59 18q-6 4 -6 6q1 3 1 10q-2 19 -2 28q0 17 13 19h193zM793 228q0 -14 -13 -14q-5 0 -18 5q-12 11 -25.5 43t-19.5 39q-19 12 -28 17.5t-13 13.5l3 52q21 6 32 21t38 78
q10 19 17.5 27t13.5 8q12 0 12 -43zM638 4l-7 -4h-248q-9 0 -16 3.5t-11 12.5q0 22 4.5 27t22.5 14t18 18v99h-171q-6 0 -4 6t4 11q12 20 17.5 30.5t14.5 16.5h139v373q0 17 -26.5 30t-26.5 26q0 5 3 13q9 9 24 14.5t45 5.5h218v-696zM366 570q0 -10 -2.5 -10.5t-2.5 -84.5
q-43 -83 -81.5 -144.5t-89.5 -140t-51 -92.5q0 -28 23 -38q10 -7 17.5 -13t7.5 -14q0 -10 -7.5 -21.5t-15.5 -11.5h-168q-8 4 -12 9t-4 14q4 15 19 22.5t30 14.5q20 13 33.5 30t46.5 68.5t84 132.5t89.5 145t82.5 143zM894 6q0 -3 -3.5 -4t-5.5 -2h-199q-9 0 -9 18
q0 9 1.5 16.5t4.5 21.5q52 5 94.5 40t57.5 84q4 10 9 22t17 12q3 0 11 3t12 3q10 0 10 -24v-190z" />
    <glyph glyph-name="Oslash" unicode="&#xd8;" horiz-adv-x="666" 
d="M315 303l-48 -58v-157q0 -8 8.5 -19.5t18.5 -18.5q18 0 18 -14v-26q0 -14 -9 -14q-45 0 -90.5 22t-84.5 59l-62 -77l-35 29l67 82q-21 27 -33 58q-15 32 -21.5 65t-11.5 85q0 62 2 88t12 60q15 71 63 132.5t92.5 76t61 19t31.5 4.5q9 0 14 -1l1 2q0 -5 1 -9q0 -6 1 -14
t2 -15q0 -9 -3 -15q-11 -7 -23 -14.5t-16 -20.5q0 -7 -2 -29t-2 -24v-244l48 59v-71zM637 316q-5 -50 -11.5 -84t-29.5 -86.5t-90 -103t-140 -50.5q-9 0 -9 14v27t18 14q10 7 18 18t8 20v304l-42 -51v69l42 51v98l-3 53q-3 11 -18 21l-21 14q-3 8 -3 15t1 14.5t2 14.5
q-2 7 -1 9q1 -1 3 -2q5 1 15 1q17 0 34.5 -5.5t51.5 -17t74 -51.5l64 78l34 -29l-68 -82q43 -58 57 -125q6 -20 10 -53t4 -95z" />
    <glyph glyph-name="plusminus" unicode="&#xb1;" 
 />
    <glyph glyph-name="yen" unicode="&#xa5;" horiz-adv-x="626" 
d="M630 683q0 -24 -30.5 -37.5t-37.5 -26.5q-7 -5 -13 -16.5t-10.5 -20t-35 -81t-55.5 -126.5h-4q-11 24 -18 39.5t-7 32.5q1 5 1 8q3 9 29 59t26 80q0 19 -7 36q-5 7 -29.5 18t-24.5 23q0 6 4.5 14t23.5 11.5t48 3.5q11 0 21.5 -0.5t21.5 -0.5h21.5t23.5 1q24 0 38 -3.5
t14 -13.5zM496 171h-70l-1 -89q3 -15 36 -29.5t33 -23.5q0 -6 -13.5 -18t-48.5 -12q-11 0 -23 0.5t-25 0.5h-221q-9 0 -17.5 5.5t-14.5 14.5q-4 10 0 19t14 13q15 0 27.5 10.5t17.5 25.5v82l-71 1v52h71l-1 64q-43 97 -72 164t-54 132q-14 28 -23.5 48t-31.5 25
q-18 10 -9 27q0 7 7.5 11.5t15.5 4.5h299q4 0 9.5 -5.5t5.5 -10.5q0 -13 -2.5 -20.5t-12.5 -11.5q-7 0 -13 -7t-6 -14q0 -5 2.5 -13.5t2.5 -9.5q57 -138 115 -275q0 -19 2 -63t2 -46h70v-52z" />
    <glyph glyph-name="mu" unicode="&#xb5;" horiz-adv-x="789" 
d="M763 678q2 -18 -24.5 -31t-26.5 -26v-529q0 -16 28.5 -34.5t28.5 -30.5q0 -9 -7 -19t-18 -10l-281 2q-18 0 -24 19q-2 15 23.5 32.5t25.5 26.5v611q0 6 7 8.5t18 2.5h12h214q7 0 15 -7t9 -15zM452 566q0 -16 1 -53t1 -55q0 -20 -1 -37t-13.5 -61.5t-36.5 -124.5t-73 -231
q-6 -6 -15 -6q-7 0 -25 47t-55 156.5t-74 221t-56 164t-52.5 64.5t-28.5 38q2 11 13 11h265q4 0 5.5 -5t8.5 -25t38.5 -116.5t34.5 -105.5q7 -9 14 -6q4 2 5.5 8t3.5 12l35 109zM230 16q-9 -16 -33 -16h-154q-4 0 -9 6t-5 13q-3 22 20.5 36.5t28.5 23.5q15 15 21.5 34.5
t6.5 42.5v310q1 -1 3.5 -6t5.5 -7l43 -143q0 -17 -0.5 -34.5t-0.5 -35.5q0 -79 7.5 -112t16.5 -44.5t31 -27t22 -27.5q0 -6 -4 -13z" />
    <glyph glyph-name="ordfeminine" unicode="&#xaa;" horiz-adv-x="385" 
d="M385 290q-8 -11 -25 -11h-155q-4 0 -7.5 6.5t-3.5 7.5q0 9 14 21.5t10 24.5q-2 7 -4 19.5t-4 18.5q-3 3 -5 4t-3 2h-77q-4 0 -3.5 4t0.5 7q3 4 5 14t7 14h57q4 4 4 10q-4 14 -4 20q-14 51 -30 119.5t-22 95.5q2 22 4 27t9 5h110q3 0 16.5 -52.5t24.5 -96t27.5 -105
t33.5 -122.5q8 -7 17.5 -14.5t3.5 -18.5zM140 555q-10 -38 -26.5 -104t-23.5 -103q-3 -24 19 -34q16 -11 17 -15q2 -7 -0.5 -13.5t-8.5 -6.5h-101q-11 5 -13 14q0 9 11.5 14t18 10t13 16t12.5 26q33 129 67 258q2 0 3 -5zM386 216h-386v38h386v-38z" />
    <glyph glyph-name="ordmasculine" unicode="&#xba;" horiz-adv-x="400" 
d="M187 305v-16q0 -8 -5 -8q-44 0 -84 29.5t-52.5 58t-17.5 48.5t-9 57q0 31 1.5 50.5t7.5 38.5q9 43 37.5 79.5t56.5 46t39.5 12.5t23.5 1q0 -2 1 -4v-27l-14 -8t-9 -13l-3 -32v-282q0 -12 16 -23q11 -2 11 -8zM382 473q-4 -41 -6.5 -55t-13.5 -35q-18 -44 -58.5 -74.5
t-83.5 -30.5q-6 0 -6 9v16q0 6 11 8q6 6 11 12t5 11v283v12q0 7 -2 19q-3 8 -11.5 13.5t-12.5 7.5q-2 3 -0.5 13.5t0.5 13.5q-1 4 0 5l2 -1q13 2 26.5 -2t38.5 -12.5t53.5 -44t36 -67t9 -51t1.5 -50.5zM380 216h-356v38h356v-38z" />
    <glyph glyph-name="ae" unicode="&#xe6;" horiz-adv-x="922" 
d="M883 696l-1 -198q-3 -7 -11 -9t-17 -2h-10q-6 7 -27.5 49.5t-37.5 55.5q-18 18 -40 27t-59 18q-6 4 -6 6q1 3 1 10q-2 19 -2 28q0 17 13 19h193zM793 228q0 -14 -13 -14q-5 0 -18 5q-12 11 -25.5 43t-19.5 39q-19 12 -28 17.5t-13 13.5l3 52q21 6 32 21t38 78
q10 19 17.5 27t13.5 8q12 0 12 -43zM638 4l-7 -4h-248q-9 0 -16 3.5t-11 12.5q0 22 4.5 27t22.5 14t18 18v99h-171q-6 0 -4 6t4 11q12 20 17.5 30.5t14.5 16.5h139v373q0 17 -26.5 30t-26.5 26q0 5 3 13q9 9 24 14.5t45 5.5h218v-696zM366 570q0 -10 -2.5 -10.5t-2.5 -84.5
q-43 -83 -81.5 -144.5t-89.5 -140t-51 -92.5q0 -28 23 -38q10 -7 17.5 -13t7.5 -14q0 -10 -7.5 -21.5t-15.5 -11.5h-168q-8 4 -12 9t-4 14q4 15 19 22.5t30 14.5q20 13 33.5 30t46.5 68.5t84 132.5t89.5 145t82.5 143zM894 6q0 -3 -3.5 -4t-5.5 -2h-199q-9 0 -9 18
q0 9 1.5 16.5t4.5 21.5q52 5 94.5 40t57.5 84q4 10 9 22t17 12q3 0 11 3t12 3q10 0 10 -24v-190z" />
    <glyph glyph-name="oslash" unicode="&#xf8;" horiz-adv-x="666" 
d="M315 303l-48 -58v-157q0 -8 8.5 -19.5t18.5 -18.5q18 0 18 -14v-26q0 -14 -9 -14q-45 0 -90.5 22t-84.5 59l-62 -77l-35 29l67 82q-21 27 -33 58q-15 32 -21.5 65t-11.5 85q0 62 2 88t12 60q15 71 63 132.5t92.5 76t61 19t31.5 4.5q9 0 14 -1l1 2q0 -5 1 -9q0 -6 1 -14
t2 -15q0 -9 -3 -15q-11 -7 -23 -14.5t-16 -20.5q0 -7 -2 -29t-2 -24v-244l48 59v-71zM637 316q-5 -50 -11.5 -84t-29.5 -86.5t-90 -103t-140 -50.5q-9 0 -9 14v27t18 14q10 7 18 18t8 20v304l-42 -51v69l42 51v98l-3 53q-3 11 -18 21l-21 14q-3 8 -3 15t1 14.5t2 14.5
q-2 7 -1 9q1 -1 3 -2q5 1 15 1q17 0 34.5 -5.5t51.5 -17t74 -51.5l64 78l34 -29l-68 -82q43 -58 57 -125q6 -20 10 -53t4 -95z" />
    <glyph glyph-name="questiondown" unicode="&#xbf;" horiz-adv-x="567" 
d="M429 599q0 -42 -28.5 -71.5t-72.5 -29.5q-43 0 -72 30t-29 71q0 42 28.5 71.5t72.5 29.5q43 0 72 -30t29 -71zM368 268q0 -25 -3.5 -29.5t-28.5 -4.5q-54 0 -88 -35t-34 -91q0 -23 7.5 -44t24.5 -35v-54q-78 7 -133.5 66.5t-55.5 137.5q0 90 61 150t122.5 68t67.5 12.5
t6 26.5q0 15 5.5 23t20.5 8q19 0 23.5 -10.5t4.5 -31.5v-157zM485 95q0 -47 -49 -85t-145 -38v54q6 2 15 5.5t9 17.5q0 9 -5.5 23t-5.5 29q0 34 25 58t61 24q40 0 67.5 -24.5t27.5 -63.5z" />
    <glyph glyph-name="exclamdown" unicode="&#xa1;" horiz-adv-x="313" 
d="M252 612q0 -39 -25.5 -67.5t-64.5 -28.5q-31 0 -59.5 27.5t-28.5 60.5q0 36 28 66t63 30t61 -27t26 -61zM262 119q0 -39 -16 -71.5t-44.5 -43.5t-48.5 -11t-36.5 9t-32 28.5t-20.5 38t-5 40.5q0 24 5 49t27.5 89.5t33.5 103.5t11 98q8 10 24 10q7 0 11 -1
q14 -10 16.5 -41t21 -99.5t53.5 -198.5z" />
    <glyph glyph-name="logicalnot" unicode="&#xac;" 
 />
    <glyph glyph-name="florin" unicode="&#x192;" 
 />
    <glyph glyph-name="guillemotleft" unicode="&#xab;" 
 />
    <glyph glyph-name="guillemotright" unicode="&#xbb;" 
 />
    <glyph glyph-name="ellipsis" unicode="&#x2026;" horiz-adv-x="600" 
d="M579 78q0 -32 -24 -58t-55 -26q-30 0 -52.5 23.5t-22.5 52.5q0 34 22 59t56 25q27 0 51.5 -23.5t24.5 -52.5zM379 78q0 -32 -24 -58t-55 -26q-30 0 -52.5 23.5t-22.5 52.5q0 34 22 59t56 25q27 0 51.5 -23.5t24.5 -52.5zM179 78q0 -32 -24 -58t-55 -26q-30 0 -52.5 23.5
t-22.5 52.5q0 34 22 59t56 25q27 0 51.5 -23.5t24.5 -52.5z" />
    <glyph glyph-name="nonbreakingspace" unicode="&#xa0;" horiz-adv-x="467" 
 />
    <glyph glyph-name="Agrave" unicode="&#xc0;" horiz-adv-x="642" 
d="M642 18q-7 -9 -18 -13.5t-24 -4.5h-258q-6 0 -10.5 7t-7.5 17q0 14 21 32t21 32q0 4 -2.5 12.5t-7.5 34.5t-10.5 32t-9.5 7h-127q-6 0 -6 7q1 8 1 10q4 6 8 23.5t12 23.5h94q7 7 7 17q0 6 -3 17t-3 16q-20 75 -43.5 171.5t-44.5 186.5q1 16 3 33q5 21 20 21h183
q6 0 27.5 -88t31 -124t46 -174t64.5 -240q4 -7 22 -20t18 -23q0 -6 -4 -13zM233 460q-49 -196 -59.5 -238.5t-23.5 -106.5q-5 -42 32 -56q11 -8 18.5 -13t9.5 -13q4 -11 -1.5 -22t-13.5 -11h-168q-5 2 -12.5 7.5t-9.5 15.5q0 14 21.5 24.5t31 18.5t19.5 24.5t42.5 137
t89.5 336.5q2 -2 4 -9zM425 743h-107l-95 146h154z" />
    <glyph glyph-name="Atilde" unicode="&#xc3;" horiz-adv-x="642" 
d="M642 18q-7 -9 -18 -13.5t-24 -4.5h-258q-6 0 -10.5 7t-7.5 17q0 14 21 32t21 32q0 4 -2.5 12.5t-7.5 34.5t-10.5 32t-9.5 7h-127q-6 0 -6 7q1 8 1 10q4 6 8 23.5t12 23.5h94q7 7 7 17q0 6 -3 17t-3 16q-20 75 -43.5 171.5t-44.5 186.5q1 16 3 33q5 21 20 21h183
q6 0 27.5 -88t31 -124t46 -174t64.5 -240q4 -7 22 -20t18 -23q0 -6 -4 -13zM233 460q-49 -196 -59.5 -238.5t-23.5 -106.5q-5 -42 32 -56q11 -8 18.5 -13t9.5 -13q4 -11 -1.5 -22t-13.5 -11h-168q-5 2 -12.5 7.5t-9.5 15.5q0 14 21.5 24.5t31 18.5t19.5 24.5t42.5 137
t89.5 336.5q2 -2 4 -9zM488 875q-8 -48 -37 -87.5t-72 -39.5q-13 0 -45 16t-39.5 17t-21.5 3.5t-20 2.5q-18 0 -31 -25h-83q6 44 38.5 80.5t76.5 43.5q14 0 30.5 -5t47 -18t46.5 -13q8 0 12 3t16 22h82z" />
    <glyph glyph-name="Otilde" unicode="&#xd5;" horiz-adv-x="666" 
d="M312 36v-26q0 -14 -9 -14q-73 0 -140 49.5t-90 102.5t-29.5 86t-11.5 85q0 65 2 94.5t12 62.5q15 71 63 132.5t92.5 76t61 19t31.5 4.5q9 0 14 -1l2 2q1 -2 0 -8t1 -17.5t2 -15.5q0 -6 -3 -12q-11 -7 -23 -14.5t-16 -20.5q-5 -25 -5 -53l1 -480q0 -8 8.5 -19.5
t18.5 -18.5q18 -5 18 -14zM637 316q-5 -50 -11.5 -84t-29.5 -86.5t-90 -103t-140 -50.5q-9 1 -9 15v26q0 5 5.5 8.5t12.5 5.5q10 7 18 18t8 20v480v13q0 23 -3 37t-18 24l-21 14q-3 6 -3 13q0 3 2 14t0.5 17.5t-0.5 8.5q1 -1 3 -2q5 1 15 1q17 0 34.5 -5.5t59 -19t90 -74.5
t63.5 -133q9 -28 11.5 -66t2.5 -91zM497 875q-8 -48 -37 -87.5t-72 -39.5q-13 0 -45 16t-39.5 17t-21.5 3.5t-20 2.5q-18 0 -31 -25h-83q6 44 38.5 80.5t76.5 43.5q14 0 30.5 -5t47 -18t46.5 -13q8 0 12 3t16 22h82z" />
    <glyph glyph-name="OE" unicode="&#x152;" horiz-adv-x="915" 
d="M877 696q0 -16 1 -51.5t1 -54.5v-12q0 -42 -6 -80q-7 -13 -22 -13q-5 0 -13 2q-6 7 -27.5 49.5t-37.5 55.5q-18 18 -40 27t-59 18q-6 4 -6 6q1 3 1 10q-2 19 -2 28q0 17 13 19h193zM788 228q-5 -12 -19 -12q-7 0 -13 3q-12 11 -25.5 43t-19.5 39q-19 12 -28 17.5
t-13 13.5v25t3 27q21 6 32 21t38 78q10 19 17.5 27t13.5 8q12 0 12 -43q0 -40 1 -122.5t1 -124.5zM632 4q-4 -2 -5 -3t-2 -1h-248q-6 0 -11 9t-9 24q0 5 5.5 8.5t12.5 5.5q10 7 18 18t8 20v471v13q0 23 -3 37t-18 24l-21 14q-3 6 -3 15q0 5 2 20t1 21q0 3 1 6q2 0 10 -6h262
v-696zM312 36v-26q0 -14 -9 -14q-73 0 -140 49.5t-90 102.5t-29.5 86t-11.5 85q0 62 2 88t12 60q15 71 63 132.5t92.5 76t61 19t31.5 4.5q9 0 14 -1l2 2q1 -2 0 -8t1 -17.5t2 -15.5q0 -6 -3 -12q-11 -7 -23 -14.5t-16 -20.5q-5 -25 -5 -53l1 -471q0 -8 8.5 -19.5t18.5 -18.5
q18 -5 18 -14zM888 6q0 -3 -3.5 -4t-5.5 -2h-199q-9 0 -9 18q0 9 1.5 16.5t4.5 21.5q52 5 94.5 40t57.5 84q4 10 9 21t17 13q4 0 10.5 7.5t8.5 7.5q3 0 5.5 -11t5 -30t3.5 -43.5t1 -59.5q0 -17 -0.5 -34.5t-0.5 -34.5v-10z" />
    <glyph glyph-name="oe" unicode="&#x153;" horiz-adv-x="915" 
d="M877 696q0 -16 1 -51.5t1 -54.5v-12q0 -42 -6 -80q-7 -13 -22 -13q-5 0 -13 2q-6 7 -27.5 49.5t-37.5 55.5q-18 18 -40 27t-59 18q-6 4 -6 6q1 3 1 10q-2 19 -2 28q0 17 13 19h193zM788 228q-5 -12 -19 -12q-7 0 -13 3q-12 11 -25.5 43t-19.5 39q-19 12 -28 17.5
t-13 13.5v25t3 27q21 6 32 21t38 78q10 19 17.5 27t13.5 8q12 0 12 -43q0 -40 1 -122.5t1 -124.5zM632 4q-4 -2 -5 -3t-2 -1h-248q-6 0 -11 9t-9 24q0 5 5.5 8.5t12.5 5.5q10 7 18 18t8 20v471v13q0 23 -3 37t-18 24l-21 14q-3 6 -3 15q0 5 2 20t1 21q0 3 1 6q2 0 10 -6h262
v-696zM312 36v-26q0 -14 -9 -14q-73 0 -140 49.5t-90 102.5t-29.5 86t-11.5 85q0 62 2 88t12 60q15 71 63 132.5t92.5 76t61 19t31.5 4.5q9 0 14 -1l2 2q1 -2 0 -8t1 -17.5t2 -15.5q0 -6 -3 -12q-11 -7 -23 -14.5t-16 -20.5q-5 -25 -5 -53l1 -471q0 -8 8.5 -19.5t18.5 -18.5
q18 -5 18 -14zM888 6q0 -3 -3.5 -4t-5.5 -2h-199q-9 0 -9 18q0 9 1.5 16.5t4.5 21.5q52 5 94.5 40t57.5 84q4 10 9 21t17 13q4 0 10.5 7.5t8.5 7.5q3 0 5.5 -11t5 -30t3.5 -43.5t1 -59.5q0 -17 -0.5 -34.5t-0.5 -34.5v-10z" />
    <glyph glyph-name="endash" unicode="&#x2013;" horiz-adv-x="468" 
d="M468 276h-468v142h468v-142z" />
    <glyph glyph-name="emdash" unicode="&#x2014;" horiz-adv-x="936" 
d="M936 276h-936v142h936v-142z" />
    <glyph glyph-name="quotedblleft" unicode="&#x201c;" horiz-adv-x="285" 
d="M252 533q2 -10 -2.5 -14t-10.5 -4q-5 0 -14 4.5t-25 14t-32.5 35t-16.5 56.5q0 9 2 18t13.5 22t24.5 15q14 3 31.5 -4.5t23.5 -18t6 -26.5q0 -12 -3 -21.5t-15.5 -18t-28.5 -8.5q-1 -5 -1 -9q7 -11 15.5 -17.5t32.5 -23.5zM138 516q-5 -5 -13 -5q-6 0 -18.5 7.5t-26 17
t-31 34t-17.5 52.5q0 9 1.5 18t12.5 21t22 16t16 4q15 0 28.5 -7.5t19.5 -20.5t6 -26q0 -6 -8 -27t-41 -21q-1 -8 0 -9q7 -10 21 -20.5t28 -19.5v-14z" />
    <glyph glyph-name="quotedblright" unicode="&#x201d;" horiz-adv-x="271" 
d="M124 579q-10 -20 -31 -33t-42 -13q-7 2 -9 8q-4 9 0 12t21.5 10t22.5 16q0 7 -8.5 9t-19.5 5q-27 11 -27 41q0 29 21 46q11 7 26 7q28 0 39.5 -15.5t14.5 -26.5t3 -21q0 -26 -11 -45zM240 656q9 -17 9 -35q0 -30 -18 -56q-15 -16 -31 -24.5t-36 -8.5q-7 3 -8 10
q0 10 8 15q13 5 27 11l8 7q0 11 -14.5 14t-28 11.5t-13.5 35.5q0 33 20 42t31 9q29 0 46 -31z" />
    <glyph glyph-name="quoteleft" unicode="&#x2018;" horiz-adv-x="170" 
d="M138 516q-5 -5 -13 -5q-6 0 -18.5 7.5t-26 17t-31 34t-17.5 52.5q0 9 1.5 18t12.5 21t22 16t16 4q15 0 28.5 -7.5t19.5 -20.5t6 -26q0 -6 -8 -27t-41 -21q-1 -8 0 -9q7 -10 21 -20.5t28 -19.5v-14z" />
    <glyph glyph-name="quoteright" unicode="&#x2019;" horiz-adv-x="156" 
d="M124 579q-10 -20 -31 -33t-42 -13q-7 2 -9 8q-4 9 0 12t21.5 10t22.5 16q0 7 -8.5 9t-19.5 5q-27 11 -27 41q0 29 21 46q11 7 26 7q28 0 39.5 -15.5t14.5 -26.5t3 -21q0 -26 -11 -45z" />
    <glyph glyph-name="divide" unicode="&#xf7;" 
 />
    <glyph glyph-name="ydieresis" unicode="&#xff;" horiz-adv-x="626" 
d="M630 684q0 -24 -30.5 -37.5t-37.5 -26.5q-7 -5 -13 -16.5t-9.5 -18t-35 -81t-56.5 -129.5h-4q-11 24 -18 39.5t-7 32.5q1 5 1 8q4 11 29.5 61t25.5 79q0 19 -7 36q-5 7 -29.5 18t-24.5 23q0 6 4.5 14t23.5 11.5t48 3.5q11 0 21.5 -0.5t21.5 -0.5h21.5t23.5 1
q24 0 38 -3.5t14 -13.5zM481 11q-14 -12 -49 -12q-11 0 -23 0.5t-25 0.5h-221q-9 0 -17.5 5.5t-14.5 14.5q-4 10 0 19t14 13q34 3 45 36v25v22v19v16v15v13q0 19 -0.5 38t-0.5 39v12q-32 73 -67.5 155.5t-58.5 141.5q-14 28 -23.5 48t-31.5 25q-18 10 -9 27q2 6 8.5 9.5
t14.5 6.5h299q4 0 9.5 -5.5t5.5 -10.5q5 -24 -12.5 -30.5t-21.5 -22.5q0 -11 5 -23t50 -118t65 -158q3 -28 4 -70.5t1 -46.5q0 -21 -1 -65t-1 -68q3 -15 36 -29.5t33 -23.5q0 -6 -13 -18zM514 827q0 -33 -23.5 -57.5t-57.5 -24.5q-36 0 -59 24t-23 58q0 33 23.5 57.5
t58.5 24.5t58 -24t23 -58zM281 827q0 -33 -23.5 -57.5t-58.5 -24.5t-58 24t-23 58q0 33 23.5 57.5t57.5 24.5q36 0 59 -24t23 -58z" />
    <glyph glyph-name="Ydieresis" unicode="&#x178;" horiz-adv-x="626" 
d="M630 684q0 -24 -30.5 -37.5t-37.5 -26.5q-7 -5 -13 -16.5t-9.5 -18t-35 -81t-56.5 -129.5h-4q-11 24 -18 39.5t-7 32.5q1 5 1 8q4 11 29.5 61t25.5 79q0 19 -7 36q-5 7 -29.5 18t-24.5 23q0 6 4.5 14t23.5 11.5t48 3.5q11 0 21.5 -0.5t21.5 -0.5h21.5t23.5 1
q24 0 38 -3.5t14 -13.5zM481 11q-14 -12 -49 -12q-11 0 -23 0.5t-25 0.5h-221q-9 0 -17.5 5.5t-14.5 14.5q-4 10 0 19t14 13q34 3 45 36v25v22v19v16v15v13q0 19 -0.5 38t-0.5 39v12q-32 73 -67.5 155.5t-58.5 141.5q-14 28 -23.5 48t-31.5 25q-18 10 -9 27q2 6 8.5 9.5
t14.5 6.5h299q4 0 9.5 -5.5t5.5 -10.5q5 -24 -12.5 -30.5t-21.5 -22.5q0 -11 5 -23t50 -118t65 -158q3 -28 4 -70.5t1 -46.5q0 -21 -1 -65t-1 -68q3 -15 36 -29.5t33 -23.5q0 -6 -13 -18zM514 827q0 -33 -23.5 -57.5t-57.5 -24.5q-36 0 -59 24t-23 58q0 33 23.5 57.5
t58.5 24.5t58 -24t23 -58zM281 827q0 -33 -23.5 -57.5t-58.5 -24.5t-58 24t-23 58q0 33 23.5 57.5t57.5 24.5q36 0 59 -24t23 -58z" />
    <glyph glyph-name="currency" unicode="&#xa4;" horiz-adv-x="669" 
d="M618 581l-65 -64q28 -32 43.5 -79t15.5 -96q0 -50 -14.5 -94.5t-44.5 -81.5l64 -66l-53 -52l-65 67q-35 -32 -80 -48t-94 -16q-51 0 -94.5 15.5t-79.5 48.5l-65 -67l-53 52l64 66q-29 35 -44 81.5t-15 94.5q0 52 14.5 96.5t44.5 78.5l-65 64l57 56l67 -66q34 30 77 45
t92 15q101 0 169 -60l67 66zM527 342q0 84 -59 146t-143 62t-143 -62t-59 -146q0 -85 58.5 -147t143.5 -62q83 0 142.5 62.5t59.5 146.5z" />
    <glyph glyph-name="guilsinglleft" unicode="&#x2039;" 
 />
    <glyph glyph-name="guilsinglright" unicode="&#x203a;" 
 />
    <glyph glyph-name="daggerdbl" unicode="&#x2021;" 
 />
    <glyph glyph-name="periodcentered" unicode="&#xb7;" horiz-adv-x="200" 
d="M179 378q0 -32 -24 -58t-55 -26q-30 0 -52.5 23.5t-22.5 52.5q0 34 22 59t56 25q27 0 51.5 -23.5t24.5 -52.5z" />
    <glyph glyph-name="periodcentered" unicode="&#x2219;" horiz-adv-x="200" 
d="M179 378q0 -32 -24 -58t-55 -26q-30 0 -52.5 23.5t-22.5 52.5q0 34 22 59t56 25q27 0 51.5 -23.5t24.5 -52.5z" />
    <glyph glyph-name="quotesinglbase" unicode="&#x201a;" 
 />
    <glyph glyph-name="quotedblbase" unicode="&#x201e;" 
 />
    <glyph glyph-name="perthousand" unicode="&#x2030;" 
 />
    <glyph glyph-name="Acircumflex" unicode="&#xc2;" horiz-adv-x="642" 
d="M642 18q-7 -9 -18 -13.5t-24 -4.5h-258q-6 0 -10.5 7t-7.5 17q0 14 21 32t21 32q0 4 -2.5 12.5t-7.5 34.5t-10.5 32t-9.5 7h-127q-6 0 -6 7q1 8 1 10q4 6 8 23.5t12 23.5h94q7 7 7 17q0 6 -3 17t-3 16q-20 75 -43.5 171.5t-44.5 186.5q1 16 3 33q5 21 20 21h183
q6 0 27.5 -88t31 -124t46 -174t64.5 -240q4 -7 22 -20t18 -23q0 -6 -4 -13zM233 460q-49 -196 -59.5 -238.5t-23.5 -106.5q-5 -42 32 -56q11 -8 18.5 -13t9.5 -13q4 -11 -1.5 -22t-13.5 -11h-168q-5 2 -12.5 7.5t-9.5 15.5q0 14 21.5 24.5t31 18.5t19.5 24.5t42.5 137
t89.5 336.5q2 -2 4 -9zM492 743h-127l-32 64l-32 -64h-126l100 146h117z" />
    <glyph glyph-name="Ecircumflex" unicode="&#xca;" horiz-adv-x="604" 
d="M562 696l-1 -198q-7 -13 -25 -13q-5 0 -13 2q-6 7 -27.5 49.5t-37.5 55.5q-18 18 -40 27t-59 18q-6 4 -6 6q1 3 1 10q-2 19 -2 28q0 17 13 19h193zM472 228q0 -14 -13 -14q-5 0 -18 5q-12 11 -25.5 43t-19.5 39q-19 12 -28 17.5t-13 13.5v25t3 27q21 6 32 21t38 78
q10 19 17.5 27t13.5 8q12 0 12 -43zM317 4q-4 -2 -5 -3t-2 -1h-248q-9 0 -16 3.5t-11 12.5q-4 17 2.5 24.5t24.5 16.5t18 18v536q0 17 -26.5 30t-26.5 26q0 5 3 13q9 9 24 14.5t45 5.5h218v-696zM573 6q0 -3 -3.5 -4t-5.5 -2h-199q-9 0 -9 18q0 9 1.5 16.5t4.5 21.5
q52 5 94.5 40t57.5 84q4 10 9 21t17 13q3 0 11 3t12 3q10 0 10 -24v-190zM465 743h-127l-32 64l-32 -64h-126l100 146h117z" />
    <glyph glyph-name="Aacute" unicode="&#xc1;" horiz-adv-x="642" 
d="M642 18q-7 -9 -18 -13.5t-24 -4.5h-258q-6 0 -10.5 7t-7.5 17q0 14 21 32t21 32q0 4 -2.5 12.5t-7.5 34.5t-10.5 32t-9.5 7h-127q-6 0 -6 7q1 8 1 10q4 6 8 23.5t12 23.5h94q7 7 7 17q0 6 -3 17t-3 16q-20 75 -43.5 171.5t-44.5 186.5q1 16 3 33q5 21 20 21h183
q6 0 27.5 -88t31 -124t46 -174t64.5 -240q4 -7 22 -20t18 -23q0 -6 -4 -13zM233 460q-49 -196 -59.5 -238.5t-23.5 -106.5q-5 -42 32 -56q11 -8 18.5 -13t9.5 -13q4 -11 -1.5 -22t-13.5 -11h-168q-5 2 -12.5 7.5t-9.5 15.5q0 14 21.5 24.5t31 18.5t19.5 24.5t42.5 137
t89.5 336.5q2 -2 4 -9zM437 889l-97 -146h-105l47 146h155z" />
    <glyph glyph-name="Edieresis" unicode="&#xcb;" horiz-adv-x="604" 
d="M562 696l-1 -198q-7 -13 -25 -13q-5 0 -13 2q-6 7 -27.5 49.5t-37.5 55.5q-18 18 -40 27t-59 18q-6 4 -6 6q1 3 1 10q-2 19 -2 28q0 17 13 19h193zM472 228q0 -14 -13 -14q-5 0 -18 5q-12 11 -25.5 43t-19.5 39q-19 12 -28 17.5t-13 13.5v25t3 27q21 6 32 21t38 78
q10 19 17.5 27t13.5 8q12 0 12 -43zM317 4q-4 -2 -5 -3t-2 -1h-248q-9 0 -16 3.5t-11 12.5q-4 17 2.5 24.5t24.5 16.5t18 18v536q0 17 -26.5 30t-26.5 26q0 5 3 13q9 9 24 14.5t45 5.5h218v-696zM573 6q0 -3 -3.5 -4t-5.5 -2h-199q-9 0 -9 18q0 9 1.5 16.5t4.5 21.5
q52 5 94.5 40t57.5 84q4 10 9 21t17 13q3 0 11 3t12 3q10 0 10 -24v-190zM508 827q0 -33 -23.5 -57.5t-57.5 -24.5q-36 0 -59 24t-23 58q0 33 23.5 57.5t58.5 24.5t58 -24t23 -58zM275 827q0 -33 -23.5 -57.5t-58.5 -24.5t-58 24t-23 58q0 33 23.5 57.5t57.5 24.5
q36 0 59 -24t23 -58z" />
    <glyph glyph-name="Egrave" unicode="&#xc8;" horiz-adv-x="604" 
d="M562 696l-1 -198q-7 -13 -25 -13q-5 0 -13 2q-6 7 -27.5 49.5t-37.5 55.5q-18 18 -40 27t-59 18q-6 4 -6 6q1 3 1 10q-2 19 -2 28q0 17 13 19h193zM472 228q0 -14 -13 -14q-5 0 -18 5q-12 11 -25.5 43t-19.5 39q-19 12 -28 17.5t-13 13.5v25t3 27q21 6 32 21t38 78
q10 19 17.5 27t13.5 8q12 0 12 -43zM317 4q-4 -2 -5 -3t-2 -1h-248q-9 0 -16 3.5t-11 12.5q-4 17 2.5 24.5t24.5 16.5t18 18v536q0 17 -26.5 30t-26.5 26q0 5 3 13q9 9 24 14.5t45 5.5h218v-696zM573 6q0 -3 -3.5 -4t-5.5 -2h-199q-9 0 -9 18q0 9 1.5 16.5t4.5 21.5
q52 5 94.5 40t57.5 84q4 10 9 21t17 13q3 0 11 3t12 3q10 0 10 -24v-190zM404 743h-107l-95 146h154z" />
    <glyph glyph-name="Iacute" unicode="&#xcd;" horiz-adv-x="390" 
d="M361 677q3 -5 3 -10q0 -7 -4.5 -13.5t-12.5 -11.5q-8 0 -15 -7t-13 -17q-6 -14 -6 -28v-508q0 -16 26 -30t26 -25q0 -8 -8 -19q-9 -6 -26 -8t-20 -2q-8 0 -15.5 0.5t-14.5 0.5h-225q-20 0 -25 23q-1 10 3 16t15 13q16 4 23.5 8t7.5 13v546q-2 13 -25 25t-23 24
q0 7 6.5 16.5t16.5 13t25 3.5h253q8 0 15 -6t13 -17zM311 889l-97 -146h-105l47 146h155z" />
    <glyph glyph-name="Icircumflex" unicode="&#xce;" horiz-adv-x="390" 
d="M361 677q3 -5 3 -10q0 -7 -4.5 -13.5t-12.5 -11.5q-8 0 -15 -7t-13 -17q-6 -14 -6 -28v-508q0 -16 26 -30t26 -25q0 -8 -8 -19q-9 -6 -26 -8t-20 -2q-8 0 -15.5 0.5t-14.5 0.5h-225q-20 0 -25 23q-1 10 3 16t15 13q16 4 23.5 8t7.5 13v546q-2 13 -25 25t-23 24
q0 7 6.5 16.5t16.5 13t25 3.5h253q8 0 15 -6t13 -17zM354 743h-127l-32 64l-32 -64h-126l100 146h117z" />
    <glyph glyph-name="Idieresis" unicode="&#xcf;" horiz-adv-x="390" 
d="M361 677q3 -5 3 -10q0 -7 -4.5 -13.5t-12.5 -11.5q-8 0 -15 -7t-13 -17q-6 -14 -6 -28v-508q0 -16 26 -30t26 -25q0 -8 -8 -19q-9 -6 -26 -8t-20 -2q-8 0 -15.5 0.5t-14.5 0.5h-225q-20 0 -25 23q-1 10 3 16t15 13q16 4 23.5 8t7.5 13v546q-2 13 -25 25t-23 24
q0 7 6.5 16.5t16.5 13t25 3.5h253q8 0 15 -6t13 -17zM394 827q0 -33 -23.5 -57.5t-57.5 -24.5q-36 0 -59 24t-23 58q0 33 23.5 57.5t58.5 24.5t58 -24t23 -58zM161 827q0 -33 -23.5 -57.5t-58.5 -24.5t-58 24t-23 58q0 33 23.5 57.5t57.5 24.5q36 0 59 -24t23 -58z" />
    <glyph glyph-name="Igrave" unicode="&#xcc;" horiz-adv-x="390" 
d="M361 677q3 -5 3 -10q0 -7 -4.5 -13.5t-12.5 -11.5q-8 0 -15 -7t-13 -17q-6 -14 -6 -28v-508q0 -16 26 -30t26 -25q0 -8 -8 -19q-9 -6 -26 -8t-20 -2q-8 0 -15.5 0.5t-14.5 0.5h-225q-20 0 -25 23q-1 10 3 16t15 13q16 4 23.5 8t7.5 13v546q-2 13 -25 25t-23 24
q0 7 6.5 16.5t16.5 13t25 3.5h253q8 0 15 -6t13 -17zM287 743h-107l-95 146h154z" />
    <glyph glyph-name="Oacute" unicode="&#xd3;" horiz-adv-x="666" 
d="M312 36v-26q0 -14 -9 -14q-73 0 -140 49.5t-90 102.5t-29.5 86t-11.5 85q0 65 2 94.5t12 62.5q15 71 63 132.5t92.5 76t61 19t31.5 4.5q9 0 14 -1l2 2q1 -2 0 -8t1 -17.5t2 -15.5q0 -6 -3 -12q-11 -7 -23 -14.5t-16 -20.5q-5 -25 -5 -53l1 -480q0 -8 8.5 -19.5
t18.5 -18.5q18 -5 18 -14zM637 316q-5 -50 -11.5 -84t-29.5 -86.5t-90 -103t-140 -50.5q-9 1 -9 15v26q0 5 5.5 8.5t12.5 5.5q10 7 18 18t8 20v480v13q0 23 -3 37t-18 24l-21 14q-3 6 -3 13q0 3 2 14t0.5 17.5t-0.5 8.5q1 -1 3 -2q5 1 15 1q17 0 34.5 -5.5t59 -19t90 -74.5
t63.5 -133q9 -28 11.5 -66t2.5 -91zM428 889l-97 -146h-105l47 146h155z" />
    <glyph glyph-name="Ocircumflex" unicode="&#xd4;" horiz-adv-x="666" 
d="M312 36v-26q0 -14 -9 -14q-73 0 -140 49.5t-90 102.5t-29.5 86t-11.5 85q0 65 2 94.5t12 62.5q15 71 63 132.5t92.5 76t61 19t31.5 4.5q9 0 14 -1l2 2q1 -2 0 -8t1 -17.5t2 -15.5q0 -6 -3 -12q-11 -7 -23 -14.5t-16 -20.5q-5 -25 -5 -53l1 -480q0 -8 8.5 -19.5
t18.5 -18.5q18 -5 18 -14zM637 316q-5 -50 -11.5 -84t-29.5 -86.5t-90 -103t-140 -50.5q-9 1 -9 15v26q0 5 5.5 8.5t12.5 5.5q10 7 18 18t8 20v480v13q0 23 -3 37t-18 24l-21 14q-3 6 -3 13q0 3 2 14t0.5 17.5t-0.5 8.5q1 -1 3 -2q5 1 15 1q17 0 34.5 -5.5t59 -19t90 -74.5
t63.5 -133q9 -28 11.5 -66t2.5 -91zM492 743h-127l-32 64l-32 -64h-126l100 146h117z" />
    <glyph glyph-name="Ograve" unicode="&#xd2;" horiz-adv-x="666" 
d="M312 36v-26q0 -14 -9 -14q-73 0 -140 49.5t-90 102.5t-29.5 86t-11.5 85q0 65 2 94.5t12 62.5q15 71 63 132.5t92.5 76t61 19t31.5 4.5q9 0 14 -1l2 2q1 -2 0 -8t1 -17.5t2 -15.5q0 -6 -3 -12q-11 -7 -23 -14.5t-16 -20.5q-5 -25 -5 -53l1 -480q0 -8 8.5 -19.5
t18.5 -18.5q18 -5 18 -14zM637 316q-5 -50 -11.5 -84t-29.5 -86.5t-90 -103t-140 -50.5q-9 1 -9 15v26q0 5 5.5 8.5t12.5 5.5q10 7 18 18t8 20v480v13q0 23 -3 37t-18 24l-21 14q-3 6 -3 13q0 3 2 14t0.5 17.5t-0.5 8.5q1 -1 3 -2q5 1 15 1q17 0 34.5 -5.5t59 -19t90 -74.5
t63.5 -133q9 -28 11.5 -66t2.5 -91zM419 743h-107l-95 146h154z" />
    <glyph glyph-name="Uacute" unicode="&#xda;" horiz-adv-x="679" 
d="M664 679q0 -23 -37.5 -45.5t-37.5 -43.5v-144v-195q0 -83 -11 -116t-37.5 -65.5t-58.5 -48t-71 -20.5l-4 1q-1 10 -1.5 18t-0.5 14q0 16 4 27q40 6 78 42t38 78l1 381q-2 27 -14.5 49.5t-37.5 35.5q-17 2 -25 20q-5 14 7 24q2 4 18 9h69.5t68.5 1q28 0 37.5 -3t14.5 -19z
M365 51q1 -22 1 -33q0 -17 -10 -22q-54 0 -98 7t-90.5 34t-67 74.5t-20.5 116.5v398q0 12 -24 24.5t-24 21.5q0 6 3.5 13.5t10.5 11t17 3.5h285q5 0 9 -7t5 -14q6 -13 -1 -20t-27.5 -14.5t-20.5 -18.5v-530q0 -20 24.5 -29t27.5 -16zM467 889l-97 -146h-105l47 146h155z" />
    <glyph glyph-name="Ucircumflex" unicode="&#xdb;" horiz-adv-x="679" 
d="M664 679q0 -23 -37.5 -45.5t-37.5 -43.5v-144v-195q0 -83 -11 -116t-37.5 -65.5t-58.5 -48t-71 -20.5l-4 1q-1 10 -1.5 18t-0.5 14q0 16 4 27q40 6 78 42t38 78l1 381q-2 27 -14.5 49.5t-37.5 35.5q-17 2 -25 20q-5 14 7 24q2 4 18 9h69.5t68.5 1q28 0 37.5 -3t14.5 -19z
M365 51q1 -22 1 -33q0 -17 -10 -22q-54 0 -98 7t-90.5 34t-67 74.5t-20.5 116.5v398q0 12 -24 24.5t-24 21.5q0 6 3.5 13.5t10.5 11t17 3.5h285q5 0 9 -7t5 -14q6 -13 -1 -20t-27.5 -14.5t-20.5 -18.5v-530q0 -20 24.5 -29t27.5 -16zM510 743h-127l-32 64l-32 -64h-126
l100 146h117z" />
    <glyph glyph-name="Ugrave" unicode="&#xd9;" horiz-adv-x="679" 
d="M664 679q0 -23 -37.5 -45.5t-37.5 -43.5v-144v-195q0 -83 -11 -116t-37.5 -65.5t-58.5 -48t-71 -20.5l-4 1q-1 10 -1.5 18t-0.5 14q0 16 4 27q40 6 78 42t38 78l1 381q-2 27 -14.5 49.5t-37.5 35.5q-17 2 -25 20q-5 14 7 24q2 4 18 9h69.5t68.5 1q28 0 37.5 -3t14.5 -19z
M365 51q1 -22 1 -33q0 -17 -10 -22q-54 0 -98 7t-90.5 34t-67 74.5t-20.5 116.5v398q0 12 -24 24.5t-24 21.5q0 6 3.5 13.5t10.5 11t17 3.5h285q5 0 9 -7t5 -14q6 -13 -1 -20t-27.5 -14.5t-20.5 -18.5v-530q0 -20 24.5 -29t27.5 -16zM431 743h-107l-95 146h154z" />
    <glyph glyph-name="circumflex" unicode="&#x2c6;" horiz-adv-x="487" 
d="M402 743h-127l-32 64l-32 -64h-126l100 146h117z" />
    <glyph glyph-name="tilde" unicode="&#x2dc;" horiz-adv-x="505" 
d="M428 875q-8 -48 -37 -87.5t-72 -39.5q-13 0 -45 16t-39.5 17t-21.5 3.5t-20 2.5q-18 0 -31 -25h-83q6 44 38.5 80.5t76.5 43.5q14 0 30.5 -5t47 -18t46.5 -13q8 0 12 3t16 22h82z" />
    <glyph glyph-name="macron" unicode="&#xaf;" horiz-adv-x="318" 
d="M313 783h-307v87h307v-87z" />
    <glyph glyph-name="macron" unicode="&#x2c9;" horiz-adv-x="318" 
d="M313 783h-307v87h307v-87z" />
    <glyph glyph-name="cedilla" unicode="&#xb8;" horiz-adv-x="318" 
d="M210 -168q0 -21 -9.5 -37t-27.5 -16h-106v80h63v53h-18q-30 0 -30 29v59h76v-36h22q30 0 30 -30v-102z" />
    <glyph glyph-name="Scaron" unicode="&#x160;" 
 />
    <glyph glyph-name="scaron" unicode="&#x161;" 
 />
    <glyph glyph-name="Zcaron" unicode="&#x17d;" 
 />
    <glyph glyph-name="brokenbar" unicode="&#xa6;" 
 />
    <glyph glyph-name="Eth" unicode="&#xd0;" 
 />
    <glyph glyph-name="eth" unicode="&#xf0;" 
 />
    <glyph glyph-name="Yacute" unicode="&#xdd;" 
 />
    <glyph glyph-name="yacute" unicode="&#xfd;" 
 />
    <glyph glyph-name="Thorn" unicode="&#xde;" 
 />
    <glyph glyph-name="thorn" unicode="&#xfe;" 
 />
    <glyph glyph-name="multiply" unicode="&#xd7;" 
 />
    <glyph glyph-name="onesuperior" unicode="&#xb9;" 
 />
    <glyph glyph-name="twosuperior" unicode="&#xb2;" 
 />
    <glyph glyph-name="threesuperior" unicode="&#xb3;" 
 />
    <glyph glyph-name="onehalf" unicode="&#xbd;" 
 />
    <glyph glyph-name="onequarter" unicode="&#xbc;" 
 />
    <glyph glyph-name="threequarters" unicode="&#xbe;" 
 />
  </font>
</defs>
</svg>
